<svg xmlns="http://www.w3.org/2000/svg" xmlns:xlink="http://www.w3.org/1999/xlink" contentStyleType="text/css" height="675px" preserveAspectRatio="none" style="width:1537px;height:675px;background:#FFFFFF;" version="1.1" viewBox="0 0 1537 675" width="1537px" zoomAndPan="magnify"><title>Dicion&#225;rio Libras+ &#8212; Diagrama de Componentes (arquitetura MVC, b&#244;nus)</title><defs/><g><text fill="#000000" font-family="Helvetica" font-size="14" font-weight="bold" lengthAdjust="spacing" textLength="496.6855" x="512.1572" y="20.7803">Dicion&#225;rio Libras+ &#8212; Diagrama de Componentes (arquitetura MVC, b&#244;nus)</text><!--cluster PC--><g id="cluster_PC"><path d="M16.5,170 L208.8721,170 A3.75,3.75 0 0 1 211.3721,172.5 L218.3721,190 L484.5,190 A2.5,2.5 0 0 1 487,192.5 L487,336.5 A2.5,2.5 0 0 1 484.5,339 L16.5,339 A2.5,2.5 0 0 1 14,336.5 L14,172.5 A2.5,2.5 0 0 1 16.5,170 " fill="none" style="stroke:#000000;stroke-width:1.5;"/><line style="stroke:#000000;stroke-width:1.5;" x1="14" x2="218.3721" y1="190" y2="190"/><text fill="#000000" font-family="Helvetica" font-size="14" font-weight="bold" lengthAdjust="spacing" textLength="191.3721" x="18" y="182.7803">Controller (Express Routers)</text></g><!--cluster MW--><g id="cluster_MW"><path d="M497.5,272 L582.5273,272 A3.75,3.75 0 0 1 585.0273,274.5 L592.0273,292 L913.5,292 A2.5,2.5 0 0 1 916,294.5 L916,439.5 A2.5,2.5 0 0 1 913.5,442 L497.5,442 A2.5,2.5 0 0 1 495,439.5 L495,274.5 A2.5,2.5 0 0 1 497.5,272 " fill="none" style="stroke:#000000;stroke-width:1.5;"/><line style="stroke:#000000;stroke-width:1.5;" x1="495" x2="592.0273" y1="292" y2="292"/><text fill="#000000" font-family="Helvetica" font-size="14" font-weight="bold" lengthAdjust="spacing" textLength="84.0273" x="499" y="284.7803">Middlewares</text></g><!--cluster VW--><g id="cluster_VW"><path d="M1088.5,272 L1161.0791,272 A3.75,3.75 0 0 1 1163.5791,274.5 L1170.5791,292 L1527.5,292 A2.5,2.5 0 0 1 1530,294.5 L1530,439.5 A2.5,2.5 0 0 1 1527.5,442 L1088.5,442 A2.5,2.5 0 0 1 1086,439.5 L1086,274.5 A2.5,2.5 0 0 1 1088.5,272 " fill="none" style="stroke:#000000;stroke-width:1.5;"/><line style="stroke:#000000;stroke-width:1.5;" x1="1086" x2="1170.5791" y1="292" y2="292"/><text fill="#000000" font-family="Helvetica" font-size="14" font-weight="bold" lengthAdjust="spacing" textLength="71.5791" x="1090" y="284.7803">View (EJS)</text></g><!--cluster SV--><g id="cluster_SV"><path d="M146.5,375 L299.2373,375 A3.75,3.75 0 0 1 301.7373,377.5 L308.7373,395 L403.5,395 A2.5,2.5 0 0 1 406,397.5 L406,557.5 A2.5,2.5 0 0 1 403.5,560 L146.5,560 A2.5,2.5 0 0 1 144,557.5 L144,377.5 A2.5,2.5 0 0 1 146.5,375 " fill="none" style="stroke:#000000;stroke-width:1.5;"/><line style="stroke:#000000;stroke-width:1.5;" x1="144" x2="308.7373" y1="395" y2="395"/><text fill="#000000" font-family="Helvetica" font-size="14" font-weight="bold" lengthAdjust="spacing" textLength="151.7373" x="148" y="387.7803">Service (casos de uso)</text></g><!--cluster RP--><g id="cluster_RP"><path d="M416.5,493 L545.0654,493 A3.75,3.75 0 0 1 547.5654,495.5 L554.5654,513 L758.5,513 A2.5,2.5 0 0 1 761,515.5 L761,659.5 A2.5,2.5 0 0 1 758.5,662 L416.5,662 A2.5,2.5 0 0 1 414,659.5 L414,495.5 A2.5,2.5 0 0 1 416.5,493 " fill="none" style="stroke:#000000;stroke-width:1.5;"/><line style="stroke:#000000;stroke-width:1.5;" x1="414" x2="554.5654" y1="513" y2="513"/><text fill="#000000" font-family="Helvetica" font-size="14" font-weight="bold" lengthAdjust="spacing" textLength="127.5654" x="418" y="505.7803">Repository (dados)</text></g><!--cluster DM--><g id="cluster_DM"><path d="M879.5,595 L936.4932,595 A3.75,3.75 0 0 1 938.9932,597.5 L945.9932,615 L1318.5,615 A2.5,2.5 0 0 1 1321,617.5 L1321,659.5 A2.5,2.5 0 0 1 1318.5,662 L879.5,662 A2.5,2.5 0 0 1 877,659.5 L877,597.5 A2.5,2.5 0 0 1 879.5,595 " fill="none" style="stroke:#000000;stroke-width:1.5;"/><line style="stroke:#000000;stroke-width:1.5;" x1="877" x2="945.9932" y1="615" y2="615"/><text fill="#000000" font-family="Helvetica" font-size="14" font-weight="bold" lengthAdjust="spacing" textLength="55.9932" x="881" y="607.7803">Dom&#237;nio</text></g><!--entity Browser--><g id="elem_Browser"><ellipse cx="471.2446" cy="47.5" fill="#F1F1F1" rx="8" ry="8" style="stroke:#181818;stroke-width:0.5;"/><path d="M471.2446,55.5 L471.2446,82.5 M458.2446,63.5 L484.2446,63.5 M471.2446,82.5 L458.2446,97.5 M471.2446,82.5 L484.2446,97.5 " fill="none" style="stroke:#181818;stroke-width:0.5;"/><text fill="#000000" font-family="Helvetica" font-size="14" lengthAdjust="spacing" textLength="68.4893" x="437" y="109.7803">Navegador</text><text fill="#000000" font-family="Helvetica" font-size="14" lengthAdjust="spacing" textLength="55.2412" x="437" y="123.7803">(usu&#225;rio)</text></g><!--entity DB--><g id="elem_DB"><path d="M771,625.5 C771,615.5 819.1309,615.5 819.1309,615.5 C819.1309,615.5 867.2617,615.5 867.2617,625.5 L867.2617,648.5 C867.2617,658.5 819.1309,658.5 819.1309,658.5 C819.1309,658.5 771,658.5 771,648.5 L771,625.5 " fill="#F1F1F1" style="stroke:#181818;stroke-width:0.5;"/><path d="M771,625.5 C771,635.5 819.1309,635.5 819.1309,635.5 C819.1309,635.5 867.2617,635.5 867.2617,625.5 " fill="none" style="stroke:#181818;stroke-width:0.5;"/><text fill="#000000" font-family="Helvetica" font-size="14" lengthAdjust="spacing" textLength="76.2617" x="781" y="650.2803">PostgreSQL</text></g><!--entity FS--><g id="elem_FS"><path d="M927,384 L968,384 A3.75,3.75 0 0 1 970.5,386.5 L977.5,405 L1075.3545,405 A2.5,2.5 0 0 1 1077.8545,407.5 L1077.8545,447.5 A2.5,2.5 0 0 1 1075.3545,450 L927,450 A2.5,2.5 0 0 1 924.5,447.5 L924.5,386.5 A2.5,2.5 0 0 1 927,384 " fill="#F1F1F1" style="stroke:#181818;stroke-width:0.5;"/><line style="stroke:#181818;stroke-width:0.5;" x1="924.5" x2="977.5" y1="405" y2="405"/><text fill="#000000" font-family="Helvetica" font-size="14" lengthAdjust="spacing" textLength="52.9307" x="934.5" y="422.7803">uploads/</text><text fill="#000000" font-family="Helvetica" font-size="14" lengthAdjust="spacing" textLength="123.3545" x="934.5" y="436.7803">(v&#237;deos + legendas)</text></g><!--entity PublicController--><g id="elem_PublicController"><rect fill="#F1F1F1" height="34" rx="2.5" ry="2.5" style="stroke:#181818;stroke-width:0.5;" width="118.8203" x="22.5" y="195"/><text fill="#000000" font-family="Helvetica" font-size="14" lengthAdjust="spacing" textLength="98.8203" x="32.5" y="215.7803">PublicController</text></g><!--entity AuthController--><g id="elem_AuthController"><rect fill="#F1F1F1" height="34" rx="2.5" ry="2.5" style="stroke:#181818;stroke-width:0.5;" width="109.4893" x="159.5" y="195"/><text fill="#000000" font-family="Helvetica" font-size="14" lengthAdjust="spacing" textLength="89.4893" x="169.5" y="215.7803">AuthController</text></g><!--entity ColaboradorController--><g id="elem_ColaboradorController"><rect fill="#F1F1F1" height="34" rx="2.5" ry="2.5" style="stroke:#181818;stroke-width:0.5;" width="157.7373" x="287" y="195"/><text fill="#000000" font-family="Helvetica" font-size="14" lengthAdjust="spacing" textLength="137.7373" x="297" y="215.7803">ColaboradorController</text></g><!--entity RevisaoController--><g id="elem_RevisaoController"><rect fill="#F1F1F1" height="34" rx="2.5" ry="2.5" style="stroke:#181818;stroke-width:0.5;" width="131.2686" x="96.5" y="297"/><text fill="#000000" font-family="Helvetica" font-size="14" lengthAdjust="spacing" textLength="111.2686" x="106.5" y="317.7803">RevisaoController</text></g><!--entity AdminController--><g id="elem_AdminController"><rect fill="#F1F1F1" height="34" rx="2.5" ry="2.5" style="stroke:#181818;stroke-width:0.5;" width="120.3721" x="246" y="297"/><text fill="#000000" font-family="Helvetica" font-size="14" lengthAdjust="spacing" textLength="100.3721" x="256" y="317.7803">AdminController</text></g><!--entity auth (sess?o)--><g id="elem_auth (sess&#227;o)"><rect fill="#F1F1F1" height="34" rx="2.5" ry="2.5" style="stroke:#181818;stroke-width:0.5;" width="104.8203" x="503.5" y="297"/><text fill="#000000" font-family="Helvetica" font-size="14" lengthAdjust="spacing" textLength="84.8203" x="513.5" y="317.7803">auth (sess&#227;o)</text></g><!--entity rbac (autorizar)--><g id="elem_rbac (autorizar)"><rect fill="#F1F1F1" height="34" rx="2.5" ry="2.5" style="stroke:#181818;stroke-width:0.5;" width="114.917" x="626.5" y="297"/><text fill="#000000" font-family="Helvetica" font-size="14" lengthAdjust="spacing" textLength="94.917" x="636.5" y="317.7803">rbac (autorizar)</text></g><!--entity upload (multer)--><g id="elem_upload (multer)"><rect fill="#F1F1F1" height="34" rx="2.5" ry="2.5" style="stroke:#181818;stroke-width:0.5;" width="114.1514" x="760" y="297"/><text fill="#000000" font-family="Helvetica" font-size="14" lengthAdjust="spacing" textLength="94.1514" x="770" y="317.7803">upload (multer)</text></g><!--entity error handler--><g id="elem_error handler"><rect fill="#F1F1F1" height="34" rx="2.5" ry="2.5" style="stroke:#181818;stroke-width:0.5;" width="100.1514" x="506" y="400"/><text fill="#000000" font-family="Helvetica" font-size="14" lengthAdjust="spacing" textLength="80.1514" x="516" y="420.7803">error handler</text></g><!--entity home ? sinal-detalhe--><g id="elem_home &#183; sinal-detalhe"><rect fill="#F1F1F1" height="34" rx="2.5" ry="2.5" style="stroke:#181818;stroke-width:0.5;" width="146.0752" x="1128" y="297"/><text fill="#000000" font-family="Helvetica" font-size="14" lengthAdjust="spacing" textLength="126.0752" x="1138" y="317.7803">home &#183; sinal-detalhe</text></g><!--entity colaborador/* ? revisao/* ? admin/*--><g id="elem_colaborador/* &#183; revisao/* &#183; admin/*"><rect fill="#F1F1F1" height="34" rx="2.5" ry="2.5" style="stroke:#181818;stroke-width:0.5;" width="228.5508" x="1292.5" y="297"/><text fill="#000000" font-family="Helvetica" font-size="14" lengthAdjust="spacing" textLength="208.5508" x="1302.5" y="317.7803">colaborador/* &#183; revisao/* &#183; admin/*</text></g><!--entity public/css ? public/js--><g id="elem_public/css &#183; public/js"><rect fill="#F1F1F1" height="34" rx="2.5" ry="2.5" style="stroke:#181818;stroke-width:0.5;" width="143.7168" x="1129" y="400"/><text fill="#000000" font-family="Helvetica" font-size="14" lengthAdjust="spacing" textLength="123.7168" x="1139" y="420.7803">public/css &#183; public/js</text></g><!--entity AuthService--><g id="elem_AuthService"><rect fill="#F1F1F1" height="34" rx="2.5" ry="2.5" style="stroke:#181818;stroke-width:0.5;" width="95.4824" x="152.5" y="400"/><text fill="#000000" font-family="Helvetica" font-size="14" lengthAdjust="spacing" textLength="75.4824" x="162.5" y="420.7803">AuthService</text></g><!--entity SinalService--><g id="elem_SinalService"><rect fill="#F1F1F1" height="34" rx="2.5" ry="2.5" style="stroke:#181818;stroke-width:0.5;" width="97.8135" x="266" y="400"/><text fill="#000000" font-family="Helvetica" font-size="14" lengthAdjust="spacing" textLength="77.8135" x="276" y="420.7803">SinalService</text></g><!--entity UsuarioService--><g id="elem_UsuarioService"><rect fill="#F1F1F1" height="34" rx="2.5" ry="2.5" style="stroke:#181818;stroke-width:0.5;" width="114.9238" x="152.5" y="518"/><text fill="#000000" font-family="Helvetica" font-size="14" lengthAdjust="spacing" textLength="94.9238" x="162.5" y="538.7803">UsuarioService</text></g><!--entity UsuarioRepository--><g id="elem_UsuarioRepository"><rect fill="#F1F1F1" height="34" rx="2.5" ry="2.5" style="stroke:#181818;stroke-width:0.5;" width="135.1582" x="423.5" y="518"/><text fill="#000000" font-family="Helvetica" font-size="14" lengthAdjust="spacing" textLength="115.1582" x="433.5" y="538.7803">UsuarioRepository</text></g><!--entity SinalRepository--><g id="elem_SinalRepository"><rect fill="#F1F1F1" height="34" rx="2.5" ry="2.5" style="stroke:#181818;stroke-width:0.5;" width="118.0479" x="577" y="518"/><text fill="#000000" font-family="Helvetica" font-size="14" lengthAdjust="spacing" textLength="98.0479" x="587" y="538.7803">SinalRepository</text></g><!--entity RevisaoRepository--><g id="elem_RevisaoRepository"><rect fill="#F1F1F1" height="34" rx="2.5" ry="2.5" style="stroke:#181818;stroke-width:0.5;" width="137.4961" x="422.5" y="620"/><text fill="#000000" font-family="Helvetica" font-size="14" lengthAdjust="spacing" textLength="117.4961" x="432.5" y="640.7803">RevisaoRepository</text></g><!--entity Audit/ConsentRepository--><g id="elem_Audit/ConsentRepository"><rect fill="#F1F1F1" height="34" rx="2.5" ry="2.5" style="stroke:#181818;stroke-width:0.5;" width="174.8613" x="577.5" y="620"/><text fill="#000000" font-family="Helvetica" font-size="14" lengthAdjust="spacing" textLength="154.8613" x="587.5" y="640.7803">Audit/ConsentRepository</text></g><!--entity Models: Usuario ? Sinal--><g id="elem_Models: Usuario &#183; Sinal"><rect fill="#F1F1F1" height="34" rx="2.5" ry="2.5" style="stroke:#181818;stroke-width:0.5;" width="163.9512" x="1149" y="620"/><text fill="#000000" font-family="Helvetica" font-size="14" lengthAdjust="spacing" textLength="143.9512" x="1159" y="640.7803">Models: Usuario &#183; Sinal</text></g><!--entity types: domain ? rbac ? workflow--><g id="elem_types: domain &#183; rbac &#183; workflow"><rect fill="#F1F1F1" height="34" rx="2.5" ry="2.5" style="stroke:#181818;stroke-width:0.5;" width="212.1855" x="919" y="620"/><text fill="#000000" font-family="Helvetica" font-size="14" lengthAdjust="spacing" textLength="192.1855" x="929" y="640.7803">types: domain &#183; rbac &#183; workflow</text></g><polygon fill="#181818" points="471,169.8978,475,160.8978,471,164.8978,467,160.8978,471,169.8978" style="stroke:#181818;stroke-width:1;"/><path d="M471,127.351 C471,140.2134 471,154.3064 471,167.1973 C471,168.0029 471,168.8039 471,169.5996 C471,169.6991 471,163.7985 471,163.8978 " fill="none" style="stroke:#181818;stroke-width:1;"/><text fill="#000000" font-family="Helvetica" font-size="13" lengthAdjust="spacing" textLength="33.9409" x="473" y="157.0103">HTTP</text><polygon fill="#181818" points="882.8767,271.9142,877.6431,263.5709,878.7285,269.1226,873.1767,270.208,882.8767,271.9142" style="stroke:#181818;stroke-width:1;"/><path d="M487.0434,216.3094 C490.019,216.9149 493.3719,217.5934 497.0707,218.3364 C504.4683,219.8223 513.2497,221.5661 523.1646,223.4994 C542.9944,227.3659 567.3583,231.9905 594.2544,236.8261 C648.0465,246.4975 711.9671,257.0136 770,264 C776.2484,264.7522 801.945,264.9131 827.3563,265.8055 C840.0619,266.2517 852.6961,266.8807 862.7923,267.858 C867.8404,268.3467 872.254,268.9224 875.7247,269.6058 C877.4601,269.9475 878.9597,270.3162 880.1851,270.7144 C880.7978,270.9135 881.342,271.1199 881.8127,271.3341 C882.0481,271.4412 882.2651,271.5502 882.4632,271.6611 C882.5622,271.7166 882.6565,271.7726 882.746,271.8291 C882.7908,271.8573 877.8565,268.5359 877.8988,268.5643 " fill="none" style="stroke:#181818;stroke-width:1;stroke-dasharray:7.0,7.0;"/><text fill="#000000" font-family="Helvetica" font-size="13" lengthAdjust="spacing" textLength="33.9663" x="772" y="259.0103">aplica</text><polygon fill="#181818" points="1085.8289,309.3351,1077.9347,303.446,1080.9524,308.2307,1076.1676,311.2484,1085.8289,309.3351" style="stroke:#181818;stroke-width:1;"/><path d="M487.2603,213.9688 C487.4624,213.9814 487.6663,213.9942 487.8719,214.0071 C491.1613,214.2135 494.8902,214.4521 499.0213,214.7237 C507.2836,215.2668 517.155,215.9415 528.3379,216.7521 C550.7036,218.3734 578.3154,220.5388 608.7927,223.284 C669.7474,228.7743 742.1644,236.5841 807,247 C857.7855,255.1587 869.7992,260.7924 920,272 C953.5075,279.4807 990.4701,287.7959 1022.2817,294.9718 C1038.1876,298.5598 1052.8057,301.863 1065.0603,304.6347 C1071.1876,306.0206 1076.724,307.2736 1081.5351,308.3628 C1082.7378,308.6352 1083.8953,308.8972 1085.0053,309.1486 C1085.2828,309.2115 1079.7055,307.9483 1079.9771,308.0098 " fill="none" style="stroke:#181818;stroke-width:1;"/><text fill="#000000" font-family="Helvetica" font-size="13" lengthAdjust="spacing" textLength="37.5781" x="888" y="259.0103">render</text><polygon fill="#181818" points="406.0317,375.8217,413.0823,368.9449,407.8848,371.1777,405.652,365.9801,406.0317,375.8217" style="stroke:#181818;stroke-width:1;"/><path d="M420.5222,339.5061 C420.3027,340.0562 420.0836,340.6053 419.8649,341.1533 C416.3664,349.9213 412.9817,358.4038 409.826,366.3127 C409.037,368.2899 408.2624,370.2313 407.5038,372.1324 C407.1246,373.0829 406.7493,374.0233 406.3783,374.9531 C406.2856,375.1856 406.1931,375.4174 406.1009,375.6485 C406.0778,375.7062 408.2784,370.1912 408.2554,370.2489 " fill="none" style="stroke:#181818;stroke-width:1;"/><text fill="#000000" font-family="Helvetica" font-size="13" lengthAdjust="spacing" textLength="39.019" x="449" y="317.5103">chama</text><polygon fill="#181818" points="703.005,492.4684,696.9392,484.7091,698.5911,490.1194,693.1808,491.7713,703.005,492.4684" style="stroke:#181818;stroke-width:1;"/><path d="M406.2637,423.7495 C406.3535,423.7806 406.4435,423.8118 406.5338,423.8431 C406.8952,423.9682 407.2613,424.0948 407.6322,424.2229 C408.3739,424.4792 409.1344,424.7413 409.9128,425.0089 C411.4697,425.5441 413.0981,426.1012 414.791,426.6771 C421.5624,428.9806 429.3636,431.5839 437.7304,434.2833 C454.4638,439.682 473.459,445.4647 491,450 C537.7509,462.0876 569.7239,461.4258 600.6477,463.448 C616.1096,464.4591 631.3092,466.1412 647.9626,470.4235 C656.2892,472.5646 664.9794,475.3558 674.2474,479.0382 C678.8815,480.8794 683.66,482.9433 688.6098,485.2603 C691.0847,486.4187 693.6025,487.6404 696.1664,488.9291 C697.4483,489.5735 698.7418,490.2346 700.0473,490.9129 C700.7,491.2521 701.3558,491.5955 702.0145,491.9434 C702.3439,492.1173 697.3774,489.4735 697.7083,489.6496 " fill="none" style="stroke:#181818;stroke-width:1;"/><text fill="#000000" font-family="Helvetica" font-size="13" lengthAdjust="spacing" textLength="20.96" x="687" y="480.0103">usa</text><polygon fill="#181818" points="882.2991,594.9841,882.7656,585.1463,880.4871,590.324,875.3094,588.0454,882.2991,594.9841" style="stroke:#181818;stroke-width:1;"/><path d="M406.1591,424.3722 C406.3366,424.4395 406.5152,424.5072 406.6951,424.5753 C407.0548,424.7115 407.4193,424.8491 407.7883,424.9881 C408.5265,425.2663 409.2831,425.55 410.0575,425.839 C411.6061,426.4168 413.2254,427.0154 414.9083,427.6306 C421.6401,430.0913 429.3906,432.8183 437.7154,435.5535 C454.365,441.0239 473.3118,446.5273 491,450 C588.1361,469.0708 617.4527,442.1189 713,468 C737.7514,474.7045 743.0416,479.7558 765,493 C814.2478,522.7037 834.6021,523.9083 869,570 C872.1357,574.2016 874.8951,578.8539 877.3161,583.6868 C878.5267,586.1033 879.6526,588.5649 880.6987,591.038 C881.2218,592.2745 881.7249,593.5139 882.2086,594.752 C882.2388,594.8293 880.0946,589.3146 880.1247,589.3919 " fill="none" style="stroke:#181818;stroke-width:1;stroke-dasharray:7.0,7.0;"/><polygon fill="#181818" points="803.5477,615.1185,801.4095,605.5046,800.5735,611.0993,794.9788,610.2633,803.5477,615.1185" style="stroke:#181818;stroke-width:1;"/><path d="M761.0342,557.6678 C762.0039,558.9783 763.0023,560.3275 764.0249,561.7093 C768.1153,567.2369 772.5929,573.2877 777.1708,579.474 C786.3266,591.8467 792.3147,599.9387 799.9787,610.2955 " fill="none" style="stroke:#181818;stroke-width:1;"/><text fill="#000000" font-family="Helvetica" font-size="13" lengthAdjust="spacing" textLength="26.0127" x="784" y="582.0103">SQL</text><polygon fill="#181818" points="876.9269,595.9916,873.8738,586.6279,873.5798,592.2771,867.9306,591.9832,876.9269,595.9916" style="stroke:#181818;stroke-width:1;"/><path d="M761.0416,539.1842 C761.1591,539.2109 761.2771,539.2378 761.3957,539.2649 C761.6328,539.3191 761.872,539.374 762.1133,539.4297 C762.5958,539.541 763.0865,539.6553 763.5852,539.7727 C767.5748,540.7114 772.0734,541.8442 776.9465,543.1913 C786.6927,545.8856 797.9366,549.4373 809.6003,554.0098 C832.9279,563.1548 857.9352,576.3828 876,595 C876.2515,595.2592 876.4996,595.5227 876.7441,595.7902 C876.8053,595.8571 872.8497,591.4668 872.9104,591.5342 " fill="none" style="stroke:#181818;stroke-width:1;stroke-dasharray:7.0,7.0;"/><polygon fill="#181818" points="942.6559,383.9741,936.691,376.137,938.2728,381.5682,932.8416,383.1499,942.6559,383.9741" style="stroke:#181818;stroke-width:1;"/><path d="M846.1553,331.0038 C871.9955,345.1878 905.2461,363.4394 937.3962,381.087 " fill="none" style="stroke:#181818;stroke-width:1;"/><text fill="#000000" font-family="Helvetica" font-size="13" lengthAdjust="spacing" textLength="67.9199" x="911" y="361.0103">grava m&#237;dia</text><!--SRC=[PLJ1RXCn4BtxAuPSI5lQI4Yzv52fJOWgr5GXMy81E4pMaus9rrviRq90I7m4Fu0uzuR4dVm9Ny9uTo5BcalYD-DvRzwCywXmcEK86hUs3E1p2cXG11KqmL2bofhTDwSitAYvGty2lxzyPHmpXtnB4WniNbX39f27BhhtfGeKIeSmdWsUm7ptmvJ-I0Y_KgP0lWH-YT9kbCbWWTfJAvB-BPM4BRCxIbbBfjifnahoLC3JynReqAmYUDu69Ismr65aJRZ5dE2Qz9g2Ib48J8DrqBd5DMMinRqntTANLPj77K0FLyvkF3aX2anNc15q1bp6MQt9GVVPXyAHzp1bmyZv-ifa09y4mEj9ETSgtQU_ZU1b6PO7qC1gd5iNwGyYKrehZ_QmXCoLQMEVM-h6IafD6sHPbPZngreCCYzqFOlTVRT7LHqtnvJdLB83wYEw6YmBRL52DsV3gC78EJPfYKO-e9ifsh0DpvEwzLd3jhHiyw-Vu9L1VIfvaVIIgbhfljdUSKnnTO_r0MDhlUCgiwZiwwLiBqUQqpl_Ftz2RgrIWcwAtlguXALl9fVCQYtHyIQjgfj4JMtWfI-Hv_qFQjUVKc6zOeUsq9KikXdnT5BNRgxki_OC1rWpoWFqifGgz7YMdbUz7Mjh6DfyTs-KhPY7uvfvpDklVHyQ1T6YYhOg6xO5SKpQ79MfJ8wZvk-DTQk5jfkAG6B0ENfcc5WVCaV9YvkQuqeih9Qyu9rw7NoFtyLwTo-9FJu1JHaPYOqNeqI8nt3A7nZfyeE5mYcJgW9rd4gECR4AY-OjyU4YFf8-ND_TJGJ_EZkxY8lQ1onqV9OCnPnPX1nJyVjh81vg7z8bbnNyCo8yYZuFlJh7EiEnO2X6XbSSuPxYkOayMEygSPHm8l-BhH7OQQbG_040]--></g></svg>