<svg xmlns="http://www.w3.org/2000/svg" xmlns:xlink="http://www.w3.org/1999/xlink" contentStyleType="text/css" height="1232px" preserveAspectRatio="none" style="width:1897px;height:1232px;background:#FFFFFF;" version="1.1" viewBox="0 0 1897 1232" width="1897px" zoomAndPan="magnify"><title>Dicion&#225;rio Libras+ &#8212; Sequ&#234;ncia: Submeter sinal + Aprovar (publicar)</title><defs/><g><text fill="#000000" font-family="sans-serif" font-size="14" font-weight="bold" lengthAdjust="spacing" textLength="497.3145" x="695.9553" y="28.5352">Dicion&#225;rio Libras+ &#8212; Sequ&#234;ncia: Submeter sinal + Aprovar (publicar)</text><rect fill="#FFFFFF" height="396.0371" style="stroke:#181818;stroke-width:1;" width="10" x="546.479" y="193.5977"/><rect fill="#FFFFFF" height="319.1055" style="stroke:#181818;stroke-width:1;" width="10" x="706.3843" y="662.2559"/><rect fill="#FFFFFF" height="337.416" style="stroke:#181818;stroke-width:1;" width="10" x="955.4521" y="222.9082"/><rect fill="#FFFFFF" height="260.4844" style="stroke:#181818;stroke-width:1;" width="10" x="955.4521" y="691.5664"/><rect fill="#FFFFFF" height="58.6211" style="stroke:#181818;stroke-width:1;" width="10" x="1271.4224" y="384.4609"/><rect fill="none" height="75.9316" style="stroke:#000000;stroke-width:1.5;" width="1007.145" x="10" y="280.2188"/><line style="stroke:#181818;stroke-width:0.5;stroke-dasharray:5.0,5.0;" x1="65" x2="65" y1="118.9766" y2="1151.9141"/><line style="stroke:#181818;stroke-width:0.5;stroke-dasharray:5.0,5.0;" x1="147.0752" x2="147.0752" y1="118.9766" y2="1151.9141"/><line style="stroke:#181818;stroke-width:0.5;stroke-dasharray:5.0,5.0;" x1="217.4854" x2="217.4854" y1="118.9766" y2="1151.9141"/><line style="stroke:#181818;stroke-width:0.5;stroke-dasharray:5.0,5.0;" x1="551.3608" x2="551.3608" y1="118.9766" y2="1151.9141"/><line style="stroke:#181818;stroke-width:0.5;stroke-dasharray:5.0,5.0;" x1="710.5972" x2="710.5972" y1="118.9766" y2="1151.9141"/><line style="stroke:#181818;stroke-width:0.5;stroke-dasharray:5.0,5.0;" x1="959.7593" x2="959.7593" y1="118.9766" y2="1151.9141"/><line style="stroke:#181818;stroke-width:0.5;stroke-dasharray:5.0,5.0;" x1="1276.3325" x2="1276.3325" y1="118.9766" y2="1151.9141"/><line style="stroke:#181818;stroke-width:0.5;stroke-dasharray:5.0,5.0;" x1="1415.5122" x2="1415.5122" y1="118.9766" y2="1151.9141"/><line style="stroke:#181818;stroke-width:0.5;stroke-dasharray:5.0,5.0;" x1="1565.4741" x2="1565.4741" y1="118.9766" y2="1151.9141"/><line style="stroke:#181818;stroke-width:0.5;stroke-dasharray:5.0,5.0;" x1="1718.0132" x2="1718.0132" y1="118.9766" y2="1151.9141"/><line style="stroke:#181818;stroke-width:0.5;stroke-dasharray:5.0,5.0;" x1="1843.3755" x2="1843.3755" y1="118.9766" y2="1151.9141"/><text fill="#000000" font-family="sans-serif" font-size="14" lengthAdjust="spacing" textLength="84.0752" x="20" y="116.0234">Colaborador</text><ellipse cx="65.0376" cy="50.9883" fill="#E2E2F0" rx="8" ry="8" style="stroke:#181818;stroke-width:0.5;"/><path d="M65.0376,58.9883 L65.0376,85.9883 M52.0376,66.9883 L78.0376,66.9883 M65.0376,85.9883 L52.0376,100.9883 M65.0376,85.9883 L78.0376,100.9883 " fill="none" style="stroke:#181818;stroke-width:0.5;"/><text fill="#000000" font-family="sans-serif" font-size="14" lengthAdjust="spacing" textLength="84.0752" x="20" y="1164.4492">Colaborador</text><ellipse cx="65.0376" cy="1175.9023" fill="#E2E2F0" rx="8" ry="8" style="stroke:#181818;stroke-width:0.5;"/><path d="M65.0376,1183.9023 L65.0376,1210.9023 M52.0376,1191.9023 L78.0376,1191.9023 M65.0376,1210.9023 L52.0376,1225.9023 M65.0376,1210.9023 L78.0376,1225.9023 " fill="none" style="stroke:#181818;stroke-width:0.5;"/><text fill="#000000" font-family="sans-serif" font-size="14" lengthAdjust="spacing" textLength="49.4102" x="120.0752" y="116.0234">Revisor</text><ellipse cx="147.7803" cy="50.9883" fill="#E2E2F0" rx="8" ry="8" style="stroke:#181818;stroke-width:0.5;"/><path d="M147.7803,58.9883 L147.7803,85.9883 M134.7803,66.9883 L160.7803,66.9883 M147.7803,85.9883 L134.7803,100.9883 M147.7803,85.9883 L160.7803,100.9883 " fill="none" style="stroke:#181818;stroke-width:0.5;"/><text fill="#000000" font-family="sans-serif" font-size="14" lengthAdjust="spacing" textLength="49.4102" x="120.0752" y="1164.4492">Revisor</text><ellipse cx="147.7803" cy="1175.9023" fill="#E2E2F0" rx="8" ry="8" style="stroke:#181818;stroke-width:0.5;"/><path d="M147.7803,1183.9023 L147.7803,1210.9023 M134.7803,1191.9023 L160.7803,1191.9023 M147.7803,1210.9023 L134.7803,1225.9023 M147.7803,1210.9023 L160.7803,1225.9023 " fill="none" style="stroke:#181818;stroke-width:0.5;"/><text fill="#000000" font-family="sans-serif" font-size="14" lengthAdjust="spacing" textLength="59.0762" x="185.4854" y="116.0234">Visitante</text><ellipse cx="218.0234" cy="50.9883" fill="#E2E2F0" rx="8" ry="8" style="stroke:#181818;stroke-width:0.5;"/><path d="M218.0234,58.9883 L218.0234,85.9883 M205.0234,66.9883 L231.0234,66.9883 M218.0234,85.9883 L205.0234,100.9883 M218.0234,85.9883 L231.0234,100.9883 " fill="none" style="stroke:#181818;stroke-width:0.5;"/><text fill="#000000" font-family="sans-serif" font-size="14" lengthAdjust="spacing" textLength="59.0762" x="185.4854" y="1164.4492">Visitante</text><ellipse cx="218.0234" cy="1175.9023" fill="#E2E2F0" rx="8" ry="8" style="stroke:#181818;stroke-width:0.5;"/><path d="M218.0234,1183.9023 L218.0234,1210.9023 M205.0234,1191.9023 L231.0234,1191.9023 M218.0234,1210.9023 L205.0234,1225.9023 M218.0234,1210.9023 L231.0234,1225.9023 " fill="none" style="stroke:#181818;stroke-width:0.5;"/><rect fill="#E2E2F0" height="30.4883" rx="2.5" ry="2.5" style="stroke:#181818;stroke-width:0.5;" width="166.2363" x="468.3608" y="87.4883"/><text fill="#000000" font-family="sans-serif" font-size="14" lengthAdjust="spacing" textLength="152.2363" x="475.3608" y="108.0234">ColaboradorController</text><rect fill="#E2E2F0" height="30.4883" rx="2.5" ry="2.5" style="stroke:#181818;stroke-width:0.5;" width="166.2363" x="468.3608" y="1150.9141"/><text fill="#000000" font-family="sans-serif" font-size="14" lengthAdjust="spacing" textLength="152.2363" x="475.3608" y="1171.4492">ColaboradorController</text><rect fill="#E2E2F0" height="30.4883" rx="2.5" ry="2.5" style="stroke:#181818;stroke-width:0.5;" width="133.5742" x="644.5972" y="87.4883"/><text fill="#000000" font-family="sans-serif" font-size="14" lengthAdjust="spacing" textLength="119.5742" x="651.5972" y="108.0234">RevisaoController</text><rect fill="#E2E2F0" height="30.4883" rx="2.5" ry="2.5" style="stroke:#181818;stroke-width:0.5;" width="133.5742" x="644.5972" y="1150.9141"/><text fill="#000000" font-family="sans-serif" font-size="14" lengthAdjust="spacing" textLength="119.5742" x="651.5972" y="1171.4492">RevisaoController</text><rect fill="#E2E2F0" height="30.4883" rx="2.5" ry="2.5" style="stroke:#181818;stroke-width:0.5;" width="93.3857" x="913.7593" y="87.4883"/><text fill="#000000" font-family="sans-serif" font-size="14" lengthAdjust="spacing" textLength="79.3857" x="920.7593" y="108.0234">SinalService</text><rect fill="#E2E2F0" height="30.4883" rx="2.5" ry="2.5" style="stroke:#181818;stroke-width:0.5;" width="93.3857" x="913.7593" y="1150.9141"/><text fill="#000000" font-family="sans-serif" font-size="14" lengthAdjust="spacing" textLength="79.3857" x="920.7593" y="1171.4492">SinalService</text><rect fill="#E2E2F0" height="30.4883" rx="2.5" ry="2.5" style="stroke:#181818;stroke-width:0.5;" width="118.1797" x="1217.3325" y="87.4883"/><text fill="#000000" font-family="sans-serif" font-size="14" lengthAdjust="spacing" textLength="104.1797" x="1224.3325" y="108.0234">SinalRepository</text><rect fill="#E2E2F0" height="30.4883" rx="2.5" ry="2.5" style="stroke:#181818;stroke-width:0.5;" width="118.1797" x="1217.3325" y="1150.9141"/><text fill="#000000" font-family="sans-serif" font-size="14" lengthAdjust="spacing" textLength="104.1797" x="1224.3325" y="1171.4492">SinalRepository</text><rect fill="#E2E2F0" height="30.4883" rx="2.5" ry="2.5" style="stroke:#181818;stroke-width:0.5;" width="141.9619" x="1345.5122" y="87.4883"/><text fill="#000000" font-family="sans-serif" font-size="14" lengthAdjust="spacing" textLength="127.9619" x="1352.5122" y="108.0234">ConsentRepository</text><rect fill="#E2E2F0" height="30.4883" rx="2.5" ry="2.5" style="stroke:#181818;stroke-width:0.5;" width="141.9619" x="1345.5122" y="1150.9141"/><text fill="#000000" font-family="sans-serif" font-size="14" lengthAdjust="spacing" textLength="127.9619" x="1352.5122" y="1171.4492">ConsentRepository</text><rect fill="#E2E2F0" height="30.4883" rx="2.5" ry="2.5" style="stroke:#181818;stroke-width:0.5;" width="137.5391" x="1497.4741" y="87.4883"/><text fill="#000000" font-family="sans-serif" font-size="14" lengthAdjust="spacing" textLength="123.5391" x="1504.4741" y="108.0234">RevisaoRepository</text><rect fill="#E2E2F0" height="30.4883" rx="2.5" ry="2.5" style="stroke:#181818;stroke-width:0.5;" width="137.5391" x="1497.4741" y="1150.9141"/><text fill="#000000" font-family="sans-serif" font-size="14" lengthAdjust="spacing" textLength="123.5391" x="1504.4741" y="1171.4492">RevisaoRepository</text><rect fill="#E2E2F0" height="30.4883" rx="2.5" ry="2.5" style="stroke:#181818;stroke-width:0.5;" width="147.3623" x="1645.0132" y="87.4883"/><text fill="#000000" font-family="sans-serif" font-size="14" lengthAdjust="spacing" textLength="133.3623" x="1652.0132" y="108.0234">AuditLogRepository</text><rect fill="#E2E2F0" height="30.4883" rx="2.5" ry="2.5" style="stroke:#181818;stroke-width:0.5;" width="147.3623" x="1645.0132" y="1150.9141"/><text fill="#000000" font-family="sans-serif" font-size="14" lengthAdjust="spacing" textLength="133.3623" x="1652.0132" y="1171.4492">AuditLogRepository</text><text fill="#000000" font-family="sans-serif" font-size="14" lengthAdjust="spacing" textLength="76.8496" x="1802.3755" y="116.0234">PostgreSQL</text><path d="M1825.8003,66.4883 C1825.8003,56.4883 1843.8003,56.4883 1843.8003,56.4883 C1843.8003,56.4883 1861.8003,56.4883 1861.8003,66.4883 L1861.8003,92.4883 C1861.8003,102.4883 1843.8003,102.4883 1843.8003,102.4883 C1843.8003,102.4883 1825.8003,102.4883 1825.8003,92.4883 L1825.8003,66.4883 " fill="#E2E2F0" style="stroke:#181818;stroke-width:1.5;"/><path d="M1825.8003,66.4883 C1825.8003,76.4883 1843.8003,76.4883 1843.8003,76.4883 C1843.8003,76.4883 1861.8003,76.4883 1861.8003,66.4883 " fill="none" style="stroke:#181818;stroke-width:1.5;"/><text fill="#000000" font-family="sans-serif" font-size="14" lengthAdjust="spacing" textLength="76.8496" x="1802.3755" y="1164.4492">PostgreSQL</text><path d="M1825.8003,1177.4023 C1825.8003,1167.4023 1843.8003,1167.4023 1843.8003,1167.4023 C1843.8003,1167.4023 1861.8003,1167.4023 1861.8003,1177.4023 L1861.8003,1203.4023 C1861.8003,1213.4023 1843.8003,1213.4023 1843.8003,1213.4023 C1843.8003,1213.4023 1825.8003,1213.4023 1825.8003,1203.4023 L1825.8003,1177.4023 " fill="#E2E2F0" style="stroke:#181818;stroke-width:1.5;"/><path d="M1825.8003,1177.4023 C1825.8003,1187.4023 1843.8003,1187.4023 1843.8003,1187.4023 C1843.8003,1187.4023 1861.8003,1187.4023 1861.8003,1177.4023 " fill="none" style="stroke:#181818;stroke-width:1.5;"/><rect fill="#FFFFFF" height="396.0371" style="stroke:#181818;stroke-width:1;" width="10" x="546.479" y="193.5977"/><rect fill="#FFFFFF" height="319.1055" style="stroke:#181818;stroke-width:1;" width="10" x="706.3843" y="662.2559"/><rect fill="#FFFFFF" height="337.416" style="stroke:#181818;stroke-width:1;" width="10" x="955.4521" y="222.9082"/><rect fill="#FFFFFF" height="260.4844" style="stroke:#181818;stroke-width:1;" width="10" x="955.4521" y="691.5664"/><rect fill="#FFFFFF" height="58.6211" style="stroke:#181818;stroke-width:1;" width="10" x="1271.4224" y="384.4609"/><rect fill="#EEEEEE" height="3" style="stroke:#EEEEEE;stroke-width:1;" width="1890.2251" x="0" y="149.6318"/><line style="stroke:#000000;stroke-width:1;" x1="0" x2="1890.2251" y1="149.6318" y2="149.6318"/><line style="stroke:#000000;stroke-width:1;" x1="0" x2="1890.2251" y1="152.6318" y2="152.6318"/><rect fill="#EEEEEE" height="23.3105" style="stroke:#000000;stroke-width:2;" width="186.9927" x="851.6162" y="138.9766"/><text fill="#000000" font-family="sans-serif" font-size="13" font-weight="bold" lengthAdjust="spacing" textLength="168.708" x="857.6162" y="155.5449">Submiss&#227;o (Colaborador)</text><polygon fill="#181818" points="534.479,189.5977,544.479,193.5977,534.479,197.5977,538.479,193.5977" style="stroke:#181818;stroke-width:1;"/><line style="stroke:#181818;stroke-width:1;" x1="65.0376" x2="540.479" y1="193.5977" y2="193.5977"/><text fill="#000000" font-family="sans-serif" font-size="13" font-weight="bold" lengthAdjust="spacing" textLength="8.5757" x="72.0376" y="188.8555">1</text><text fill="#000000" font-family="sans-serif" font-size="13" lengthAdjust="spacing" textLength="259.9365" x="84.6133" y="188.8555">POST /colaborador/novo (dados + v&#237;deo)</text><polygon fill="#181818" points="943.4521,218.9082,953.4521,222.9082,943.4521,226.9082,947.4521,222.9082" style="stroke:#181818;stroke-width:1;"/><line style="stroke:#181818;stroke-width:1;" x1="556.479" x2="949.4521" y1="222.9082" y2="222.9082"/><text fill="#000000" font-family="sans-serif" font-size="13" font-weight="bold" lengthAdjust="spacing" textLength="8.5757" x="563.479" y="218.166">2</text><text fill="#000000" font-family="sans-serif" font-size="13" lengthAdjust="spacing" textLength="204.7627" x="576.0547" y="218.166">submeter(usuario, dados, midia)</text><line style="stroke:#181818;stroke-width:1;" x1="965.4521" x2="1007.4521" y1="252.2188" y2="252.2188"/><line style="stroke:#181818;stroke-width:1;" x1="1007.4521" x2="1007.4521" y1="252.2188" y2="265.2188"/><line style="stroke:#181818;stroke-width:1;" x1="966.4521" x2="1007.4521" y1="265.2188" y2="265.2188"/><polygon fill="#181818" points="976.4521,261.2188,966.4521,265.2188,976.4521,269.2188,972.4521,265.2188" style="stroke:#181818;stroke-width:1;"/><text fill="#000000" font-family="sans-serif" font-size="13" font-weight="bold" lengthAdjust="spacing" textLength="8.5757" x="972.4521" y="247.4766">3</text><text fill="#000000" font-family="sans-serif" font-size="13" lengthAdjust="spacing" textLength="240.6968" x="985.0278" y="247.4766">validarConsentimento(midia)  // LGPD</text><path d="M10,280.2188 L72.1387,280.2188 L72.1387,287.5293 L62.1387,297.5293 L10,297.5293 L10,280.2188 " fill="#EEEEEE" style="stroke:#000000;stroke-width:1.5;"/><rect fill="none" height="75.9316" style="stroke:#000000;stroke-width:1.5;" width="1007.145" x="10" y="280.2188"/><text fill="#000000" font-family="sans-serif" font-size="13" font-weight="bold" lengthAdjust="spacing" textLength="17.1387" x="25" y="293.7871">alt</text><text fill="#000000" font-family="sans-serif" font-size="11" font-weight="bold" lengthAdjust="spacing" textLength="297.1128" x="87.1387" y="292.8535">[v&#237;deo com pessoa identific&#225;vel sem consentimento]</text><polygon fill="#181818" points="567.479,314.8398,557.479,318.8398,567.479,322.8398,563.479,318.8398" style="stroke:#181818;stroke-width:1;"/><line style="stroke:#181818;stroke-width:1;stroke-dasharray:2.0,2.0;" x1="561.479" x2="954.4521" y1="318.8398" y2="318.8398"/><text fill="#000000" font-family="sans-serif" font-size="13" font-weight="bold" lengthAdjust="spacing" textLength="8.5757" x="573.479" y="314.0977">4</text><text fill="#000000" font-family="sans-serif" font-size="13" lengthAdjust="spacing" textLength="131.4473" x="586.0547" y="314.0977">ValidationError (400)</text><polygon fill="#181818" points="76.0376,344.1504,66.0376,348.1504,76.0376,352.1504,72.0376,348.1504" style="stroke:#181818;stroke-width:1;"/><line style="stroke:#181818;stroke-width:1;stroke-dasharray:2.0,2.0;" x1="70.0376" x2="545.479" y1="348.1504" y2="348.1504"/><text fill="#000000" font-family="sans-serif" font-size="13" font-weight="bold" lengthAdjust="spacing" textLength="8.5757" x="82.0376" y="343.4082">5</text><text fill="#000000" font-family="sans-serif" font-size="13" lengthAdjust="spacing" textLength="127.1626" x="94.6133" y="343.4082">formul&#225;rio com erro</text><polygon fill="#181818" points="1259.4224,380.4609,1269.4224,384.4609,1259.4224,388.4609,1263.4224,384.4609" style="stroke:#181818;stroke-width:1;"/><line style="stroke:#181818;stroke-width:1;" x1="965.4521" x2="1265.4224" y1="384.4609" y2="384.4609"/><text fill="#000000" font-family="sans-serif" font-size="13" font-weight="bold" lengthAdjust="spacing" textLength="8.5757" x="972.4521" y="379.7188">6</text><text fill="#000000" font-family="sans-serif" font-size="13" lengthAdjust="spacing" textLength="158.9644" x="985.0278" y="379.7188">criar(status = PENDENTE)</text><polygon fill="#181818" points="1831.8003,409.7715,1841.8003,413.7715,1831.8003,417.7715,1835.8003,413.7715" style="stroke:#181818;stroke-width:1;"/><line style="stroke:#181818;stroke-width:1;" x1="1281.4224" x2="1837.8003" y1="413.7715" y2="413.7715"/><text fill="#000000" font-family="sans-serif" font-size="13" font-weight="bold" lengthAdjust="spacing" textLength="8.5757" x="1288.4224" y="409.0293">7</text><text fill="#000000" font-family="sans-serif" font-size="13" lengthAdjust="spacing" textLength="77.3398" x="1300.998" y="409.0293">INSERT sinal</text><polygon fill="#181818" points="1287.4224,439.082,1277.4224,443.082,1287.4224,447.082,1283.4224,443.082" style="stroke:#181818;stroke-width:1;"/><line style="stroke:#181818;stroke-width:1;stroke-dasharray:2.0,2.0;" x1="1281.4224" x2="1842.8003" y1="443.082" y2="443.082"/><text fill="#000000" font-family="sans-serif" font-size="13" font-weight="bold" lengthAdjust="spacing" textLength="8.5757" x="1293.4224" y="438.3398">8</text><text fill="#000000" font-family="sans-serif" font-size="13" lengthAdjust="spacing" textLength="11.9399" x="1305.998" y="438.3398">id</text><polygon fill="#181818" points="1264.4224,468.3926,1274.4224,472.3926,1264.4224,476.3926,1268.4224,472.3926" style="stroke:#181818;stroke-width:1;"/><line style="stroke:#181818;stroke-width:1;" x1="965.4521" x2="1270.4224" y1="472.3926" y2="472.3926"/><text fill="#000000" font-family="sans-serif" font-size="13" font-weight="bold" lengthAdjust="spacing" textLength="8.5757" x="972.4521" y="467.6504">9</text><text fill="#000000" font-family="sans-serif" font-size="13" lengthAdjust="spacing" textLength="177.3599" x="985.0278" y="467.6504">adicionarVideo(url, legenda)</text><polygon fill="#181818" points="1404.4932,497.7031,1414.4932,501.7031,1404.4932,505.7031,1408.4932,501.7031" style="stroke:#181818;stroke-width:1;"/><line style="stroke:#181818;stroke-width:1;" x1="965.4521" x2="1410.4932" y1="501.7031" y2="501.7031"/><text fill="#000000" font-family="sans-serif" font-size="13" font-weight="bold" lengthAdjust="spacing" textLength="17.1514" x="972.4521" y="496.9609">10</text><text fill="#000000" font-family="sans-serif" font-size="13" lengthAdjust="spacing" textLength="155.7524" x="993.6035" y="496.9609">registrar(consentimento)</text><polygon fill="#181818" points="1706.6943,527.0137,1716.6943,531.0137,1706.6943,535.0137,1710.6943,531.0137" style="stroke:#181818;stroke-width:1;"/><line style="stroke:#181818;stroke-width:1;" x1="965.4521" x2="1712.6943" y1="531.0137" y2="531.0137"/><text fill="#000000" font-family="sans-serif" font-size="13" font-weight="bold" lengthAdjust="spacing" textLength="17.1514" x="972.4521" y="526.2715">11</text><text fill="#000000" font-family="sans-serif" font-size="13" lengthAdjust="spacing" textLength="174.9668" x="993.6035" y="526.2715">registrar(acao = SUBMETER)</text><polygon fill="#181818" points="567.479,556.3242,557.479,560.3242,567.479,564.3242,563.479,560.3242" style="stroke:#181818;stroke-width:1;"/><line style="stroke:#181818;stroke-width:1;stroke-dasharray:2.0,2.0;" x1="561.479" x2="959.4521" y1="560.3242" y2="560.3242"/><text fill="#000000" font-family="sans-serif" font-size="13" font-weight="bold" lengthAdjust="spacing" textLength="17.1514" x="573.479" y="555.582">12</text><text fill="#000000" font-family="sans-serif" font-size="13" lengthAdjust="spacing" textLength="107.8213" x="594.6304" y="555.582">Sinal (PENDENTE)</text><polygon fill="#181818" points="76.0376,585.6348,66.0376,589.6348,76.0376,593.6348,72.0376,589.6348" style="stroke:#181818;stroke-width:1;"/><line style="stroke:#181818;stroke-width:1;stroke-dasharray:2.0,2.0;" x1="70.0376" x2="550.479" y1="589.6348" y2="589.6348"/><text fill="#000000" font-family="sans-serif" font-size="13" font-weight="bold" lengthAdjust="spacing" textLength="17.1514" x="82.0376" y="584.8926">13</text><text fill="#000000" font-family="sans-serif" font-size="13" lengthAdjust="spacing" textLength="244.0991" x="103.189" y="584.8926">redirect /colaborador/submissoes (ok)</text><rect fill="#EEEEEE" height="3" style="stroke:#EEEEEE;stroke-width:1;" width="1890.2251" x="0" y="618.29"/><line style="stroke:#000000;stroke-width:1;" x1="0" x2="1890.2251" y1="618.29" y2="618.29"/><line style="stroke:#000000;stroke-width:1;" x1="0" x2="1890.2251" y1="621.29" y2="621.29"/><rect fill="#EEEEEE" height="23.3105" style="stroke:#000000;stroke-width:2;" width="221.9492" x="834.1379" y="607.6348"/><text fill="#000000" font-family="sans-serif" font-size="13" font-weight="bold" lengthAdjust="spacing" textLength="203.6646" x="840.1379" y="624.2031">Revis&#227;o e publica&#231;&#227;o (Revisor)</text><polygon fill="#181818" points="694.3843,658.2559,704.3843,662.2559,694.3843,666.2559,698.3843,662.2559" style="stroke:#181818;stroke-width:1;"/><line style="stroke:#181818;stroke-width:1;" x1="147.7803" x2="700.3843" y1="662.2559" y2="662.2559"/><text fill="#000000" font-family="sans-serif" font-size="13" font-weight="bold" lengthAdjust="spacing" textLength="17.1514" x="154.7803" y="657.5137">14</text><text fill="#000000" font-family="sans-serif" font-size="13" lengthAdjust="spacing" textLength="170.1997" x="175.9316" y="657.5137">POST /revisao/{id}/aprovar</text><polygon fill="#181818" points="943.4521,687.5664,953.4521,691.5664,943.4521,695.5664,947.4521,691.5664" style="stroke:#181818;stroke-width:1;"/><line style="stroke:#181818;stroke-width:1;" x1="716.3843" x2="949.4521" y1="691.5664" y2="691.5664"/><text fill="#000000" font-family="sans-serif" font-size="13" font-weight="bold" lengthAdjust="spacing" textLength="17.1514" x="723.3843" y="686.8242">15</text><text fill="#000000" font-family="sans-serif" font-size="13" lengthAdjust="spacing" textLength="198.9165" x="744.5356" y="686.8242">aprovar(id, revisor, comentario)</text><polygon fill="#181818" points="1264.4224,716.877,1274.4224,720.877,1264.4224,724.877,1268.4224,720.877" style="stroke:#181818;stroke-width:1;"/><line style="stroke:#181818;stroke-width:1;" x1="965.4521" x2="1270.4224" y1="720.877" y2="720.877"/><text fill="#000000" font-family="sans-serif" font-size="13" font-weight="bold" lengthAdjust="spacing" textLength="17.1514" x="972.4521" y="716.1348">16</text><text fill="#000000" font-family="sans-serif" font-size="13" lengthAdjust="spacing" textLength="94.8467" x="993.6035" y="716.1348">buscarPorId(id)</text><polygon fill="#181818" points="976.4521,746.1875,966.4521,750.1875,976.4521,754.1875,972.4521,750.1875" style="stroke:#181818;stroke-width:1;"/><line style="stroke:#181818;stroke-width:1;stroke-dasharray:2.0,2.0;" x1="970.4521" x2="1275.4224" y1="750.1875" y2="750.1875"/><text fill="#000000" font-family="sans-serif" font-size="13" font-weight="bold" lengthAdjust="spacing" textLength="17.1514" x="982.4521" y="745.4453">17</text><text fill="#000000" font-family="sans-serif" font-size="13" lengthAdjust="spacing" textLength="107.8213" x="1003.6035" y="745.4453">Sinal (PENDENTE)</text><line style="stroke:#181818;stroke-width:1;" x1="965.4521" x2="1007.4521" y1="779.498" y2="779.498"/><line style="stroke:#181818;stroke-width:1;" x1="1007.4521" x2="1007.4521" y1="779.498" y2="792.498"/><line style="stroke:#181818;stroke-width:1;" x1="966.4521" x2="1007.4521" y1="792.498" y2="792.498"/><polygon fill="#181818" points="976.4521,788.498,966.4521,792.498,976.4521,796.498,972.4521,792.498" style="stroke:#181818;stroke-width:1;"/><text fill="#000000" font-family="sans-serif" font-size="13" font-weight="bold" lengthAdjust="spacing" textLength="17.1514" x="972.4521" y="774.7559">18</text><text fill="#000000" font-family="sans-serif" font-size="13" lengthAdjust="spacing" textLength="257.2388" x="993.6035" y="774.7559">aplicarTransicao(aprovar) -&gt; APROVADO</text><line style="stroke:#181818;stroke-width:1;" x1="965.4521" x2="1007.4521" y1="821.8086" y2="821.8086"/><line style="stroke:#181818;stroke-width:1;" x1="1007.4521" x2="1007.4521" y1="821.8086" y2="834.8086"/><line style="stroke:#181818;stroke-width:1;" x1="966.4521" x2="1007.4521" y1="834.8086" y2="834.8086"/><polygon fill="#181818" points="976.4521,830.8086,966.4521,834.8086,976.4521,838.8086,972.4521,834.8086" style="stroke:#181818;stroke-width:1;"/><text fill="#000000" font-family="sans-serif" font-size="13" font-weight="bold" lengthAdjust="spacing" textLength="17.1514" x="972.4521" y="817.0664">19</text><text fill="#000000" font-family="sans-serif" font-size="13" lengthAdjust="spacing" textLength="260.8188" x="993.6035" y="817.0664">aplicarTransicao(publicar) -&gt; PUBLICADO</text><polygon fill="#181818" points="1554.2437,860.1191,1564.2437,864.1191,1554.2437,868.1191,1558.2437,864.1191" style="stroke:#181818;stroke-width:1;"/><line style="stroke:#181818;stroke-width:1;" x1="965.4521" x2="1560.2437" y1="864.1191" y2="864.1191"/><text fill="#000000" font-family="sans-serif" font-size="13" font-weight="bold" lengthAdjust="spacing" textLength="17.1514" x="972.4521" y="859.377">20</text><text fill="#000000" font-family="sans-serif" font-size="13" lengthAdjust="spacing" textLength="200.1606" x="993.6035" y="859.377">registrar(decisao = APROVADO)</text><polygon fill="#181818" points="1264.4224,889.4297,1274.4224,893.4297,1264.4224,897.4297,1268.4224,893.4297" style="stroke:#181818;stroke-width:1;"/><line style="stroke:#181818;stroke-width:1;" x1="965.4521" x2="1270.4224" y1="893.4297" y2="893.4297"/><text fill="#000000" font-family="sans-serif" font-size="13" font-weight="bold" lengthAdjust="spacing" textLength="17.1514" x="972.4521" y="888.6875">21</text><text fill="#000000" font-family="sans-serif" font-size="13" lengthAdjust="spacing" textLength="237.0913" x="993.6035" y="888.6875">atualizarStatus(PUBLICADO, revisorId)</text><polygon fill="#181818" points="1706.6943,918.7402,1716.6943,922.7402,1706.6943,926.7402,1710.6943,922.7402" style="stroke:#181818;stroke-width:1;"/><line style="stroke:#181818;stroke-width:1;" x1="965.4521" x2="1712.6943" y1="922.7402" y2="922.7402"/><text fill="#000000" font-family="sans-serif" font-size="13" font-weight="bold" lengthAdjust="spacing" textLength="17.1514" x="972.4521" y="917.998">22</text><text fill="#000000" font-family="sans-serif" font-size="13" lengthAdjust="spacing" textLength="169.9141" x="993.6035" y="917.998">registrar(acao = APROVAR)</text><polygon fill="#181818" points="727.3843,948.0508,717.3843,952.0508,727.3843,956.0508,723.3843,952.0508" style="stroke:#181818;stroke-width:1;"/><line style="stroke:#181818;stroke-width:1;stroke-dasharray:2.0,2.0;" x1="721.3843" x2="959.4521" y1="952.0508" y2="952.0508"/><text fill="#000000" font-family="sans-serif" font-size="13" font-weight="bold" lengthAdjust="spacing" textLength="17.1514" x="733.3843" y="947.3086">23</text><text fill="#000000" font-family="sans-serif" font-size="13" lengthAdjust="spacing" textLength="114.48" x="754.5356" y="947.3086">Sinal (PUBLICADO)</text><polygon fill="#181818" points="158.7803,977.3613,148.7803,981.3613,158.7803,985.3613,154.7803,981.3613" style="stroke:#181818;stroke-width:1;"/><line style="stroke:#181818;stroke-width:1;stroke-dasharray:2.0,2.0;" x1="152.7803" x2="710.3843" y1="981.3613" y2="981.3613"/><text fill="#000000" font-family="sans-serif" font-size="13" font-weight="bold" lengthAdjust="spacing" textLength="17.1514" x="164.7803" y="976.6191">24</text><text fill="#000000" font-family="sans-serif" font-size="13" lengthAdjust="spacing" textLength="201.5825" x="185.9316" y="976.6191">redirect /revisao (ok=aprovado)</text><rect fill="#EEEEEE" height="3" style="stroke:#EEEEEE;stroke-width:1;" width="1890.2251" x="0" y="1010.0166"/><line style="stroke:#000000;stroke-width:1;" x1="0" x2="1890.2251" y1="1010.0166" y2="1010.0166"/><line style="stroke:#000000;stroke-width:1;" x1="0" x2="1890.2251" y1="1013.0166" y2="1013.0166"/><rect fill="#EEEEEE" height="23.3105" style="stroke:#000000;stroke-width:2;" width="130.4795" x="879.8728" y="999.3613"/><text fill="#000000" font-family="sans-serif" font-size="13" font-weight="bold" lengthAdjust="spacing" textLength="112.1948" x="885.8728" y="1015.9297">Consulta p&#250;blica</text><polygon fill="#181818" points="539.479,1049.9824,549.479,1053.9824,539.479,1057.9824,543.479,1053.9824" style="stroke:#181818;stroke-width:1;"/><line style="stroke:#181818;stroke-width:1;" x1="218.0234" x2="545.479" y1="1053.9824" y2="1053.9824"/><text fill="#000000" font-family="sans-serif" font-size="13" font-weight="bold" lengthAdjust="spacing" textLength="17.1514" x="225.0234" y="1049.2402">25</text><text fill="#000000" font-family="sans-serif" font-size="13" lengthAdjust="spacing" textLength="92.1934" x="246.1748" y="1049.2402">GET /sinal/{id}</text><path d="M556,1066.9824 L556,1106.9824 L739,1106.9824 L739,1076.9824 L729,1066.9824 L556,1066.9824 " fill="#FEFFDD" style="stroke:#181818;stroke-width:0.5;"/><path d="M729,1066.9824 L729,1076.9824 L739,1076.9824 L729,1066.9824 " fill="#FEFFDD" style="stroke:#181818;stroke-width:0.5;"/><text fill="#000000" font-family="sans-serif" font-size="13" lengthAdjust="spacing" textLength="162.6587" x="562" y="1084.5508">Apenas sinais PUBLICADO</text><text fill="#000000" font-family="sans-serif" font-size="13" lengthAdjust="spacing" textLength="149.3794" x="562" y="1099.8613">s&#227;o vis&#237;veis ao Visitante</text><polygon fill="#181818" points="229.0234,1129.9141,219.0234,1133.9141,229.0234,1137.9141,225.0234,1133.9141" style="stroke:#181818;stroke-width:1;"/><line style="stroke:#181818;stroke-width:1;stroke-dasharray:2.0,2.0;" x1="223.0234" x2="550.479" y1="1133.9141" y2="1133.9141"/><text fill="#000000" font-family="sans-serif" font-size="13" font-weight="bold" lengthAdjust="spacing" textLength="17.1514" x="235.0234" y="1129.1719">26</text><text fill="#000000" font-family="sans-serif" font-size="13" lengthAdjust="spacing" textLength="288.3042" x="256.1748" y="1129.1719">p&#225;gina do sinal (v&#237;deo legendado + variantes)</text><!--SRC=[VLN1RkCs4BtpAmOvoLW7pg6d02xWsCOYW3TnAMzElOn5nakiBAf3IaLR5EX7z0U27WeKs1_erN-oNx93Ih8aRv2B8Oll3MVUl1bvutCDAvCPMvnUo5ZOc3sXUmTV__eRKlrBTVglo0pUGbhjZzfh0cSApE4TB4goDH8aPRNFJOOq4UwpAKeaF8BxXCh-Qee3F6FkjC3Asw8wxZK9WPct14kRuzuImwXz8tLjtFdVat76O-6ru8YU4opv3rmDQ4jRUB9vhkaAqC5oEKR6S6WlKF82bOPgKasroNG4fEah0AbBo-bO-gt1oCka2gSBVu5QobSJka392zIYKiPlxE42jf12eSSzEWrNM-lyWNJwqoQUhUw4cCzZXunpftyi90EP9Z2VYy5_kFwHjO9Rs3wcEvXb_Scii3Lp5JyxRd1z-gAqdOH-c1gz3WepaUbfodJN6YAfN8Nid2b4uXIEHXaSq5XH9dIq6dEZa5h9p95_RD9G06OpsBpVhWJclhqUCdk4KZjd4OmAZ6UJdLvgdOFJHpuTX14GhhZkwdkADtbszfg8wqv-kBcPC2RK4303IMxXsTAnofiH25TgfWXTg2vroPYC35BYFFhAmHoswuVL-c6t7fOg1ICPlxfZ_Fr3kfQxPc04lxdk0Xabb1wH-ajGnM54Uk9oRL9HFeLS7pWLrhJ1BGEEzC4uJvpGI8CEinXZC4FBAQSVxpwiTslPe3gXeiKXwUiP9fUAL_KYhGpfp8yDv1eBMkqWiPz7WTWymQHn2895DRHxu_HlT6mx_T6jxNEeG_PEfMP-PdyOzUSCc-tJIy-3BNjpjiU9KLEW9jeqz9Kb2bvzrPr1iNtbU9DjBTqhvavYDxkOtyaqS3MMSGNk20l73pPf4vZ4NcpbuzDYzVWcuRn50sJxyMvpl-mfSjnDfREW13Uq2pqPMSXNRFtVaT9erUGSxQp5lNhR9qtOtYPoQ9CksgLFPEEJhdb3ZxIj2wQODyeeEwBBnXrXArIvHoXF_qSvWXlENuBpvdg_PZl4iOfc48NbGpA7JnxiSmDPbBhWrHX0nlLw_bn4ymKFVgardt1I_PUcTNf_uIqdydBW6A1i- -5BshtKpYI_vqt9dWfuD_a6]--></g></svg>