<svg xmlns="http://www.w3.org/2000/svg" xmlns:xlink="http://www.w3.org/1999/xlink" contentStyleType="text/css" height="740px" preserveAspectRatio="none" style="width:1026px;height:740px;background:#FFFFFF;" version="1.1" viewBox="0 0 1026 740" width="1026px" zoomAndPan="magnify"><title>Dicion&#225;rio Libras+ &#8212; Diagrama de Casos de Uso (b&#244;nus)</title><defs/><g><text fill="#000000" font-family="sans-serif" font-size="14" font-weight="bold" lengthAdjust="spacing" textLength="409.9375" x="304.5313" y="23.5352">Dicion&#225;rio Libras+ &#8212; Diagrama de Casos de Uso (b&#244;nus)</text><!--cluster Dicion?rio Libras+--><g id="cluster_Dicion&#225;rio Libras+"><rect fill="none" height="693" rx="2.5" ry="2.5" style="stroke:#181818;stroke-width:1;" width="585" x="435" y="41.4883"/><text fill="#000000" font-family="sans-serif" font-size="14" font-weight="bold" lengthAdjust="spacing" textLength="134.1143" x="660.4429" y="57.0234">Dicion&#225;rio Libras+</text></g><!--entity Visitante--><g id="elem_Visitante"><ellipse cx="376.5381" cy="115.9883" fill="#F1F1F1" rx="8" ry="8" style="stroke:#181818;stroke-width:0.5;"/><path d="M376.5381,123.9883 L376.5381,150.9883 M363.5381,131.9883 L389.5381,131.9883 M376.5381,150.9883 L363.5381,165.9883 M376.5381,150.9883 L389.5381,165.9883 " fill="none" style="stroke:#181818;stroke-width:0.5;"/><text fill="#000000" font-family="sans-serif" font-size="14" lengthAdjust="spacing" textLength="59.0762" x="347" y="181.0234">Visitante</text></g><!--entity Colaborador--><g id="elem_Colaborador"><ellipse cx="268.0376" cy="237.9883" fill="#F1F1F1" rx="8" ry="8" style="stroke:#181818;stroke-width:0.5;"/><path d="M268.0376,245.9883 L268.0376,272.9883 M255.0376,253.9883 L281.0376,253.9883 M268.0376,272.9883 L255.0376,287.9883 M268.0376,272.9883 L281.0376,287.9883 " fill="none" style="stroke:#181818;stroke-width:0.5;"/><text fill="#000000" font-family="sans-serif" font-size="14" lengthAdjust="spacing" textLength="84.0752" x="226" y="303.0234">Colaborador</text></g><!--entity Revisor--><g id="elem_Revisor"><ellipse cx="164.7051" cy="440.9883" fill="#F1F1F1" rx="8" ry="8" style="stroke:#181818;stroke-width:0.5;"/><path d="M164.7051,448.9883 L164.7051,475.9883 M151.7051,456.9883 L177.7051,456.9883 M164.7051,475.9883 L151.7051,490.9883 M164.7051,475.9883 L177.7051,490.9883 " fill="none" style="stroke:#181818;stroke-width:0.5;"/><text fill="#000000" font-family="sans-serif" font-size="14" lengthAdjust="spacing" textLength="49.4102" x="140" y="506.0234">Revisor</text></g><!--entity Administrador--><g id="elem_Administrador"><ellipse cx="54.6479" cy="571.9883" fill="#F1F1F1" rx="8" ry="8" style="stroke:#181818;stroke-width:0.5;"/><path d="M54.6479,579.9883 L54.6479,606.9883 M41.6479,587.9883 L67.6479,587.9883 M54.6479,606.9883 L41.6479,621.9883 M54.6479,606.9883 L67.6479,621.9883 " fill="none" style="stroke:#181818;stroke-width:0.5;"/><text fill="#000000" font-family="sans-serif" font-size="14" lengthAdjust="spacing" textLength="97.2959" x="6" y="637.0234">Administrador</text></g><g id="elem_UC_Buscar"><ellipse cx="553.3688" cy="84.462" fill="#F1F1F1" rx="67.8688" ry="15.9738" style="stroke:#181818;stroke-width:0.5;"/><text fill="#000000" font-family="sans-serif" font-size="14" lengthAdjust="spacing" textLength="87.7256" x="506.506" y="88.4796">Buscar sinais</text></g><g id="elem_UC_Ver"><ellipse cx="553.7478" cy="145.3062" fill="#F1F1F1" rx="101.2478" ry="26.318" style="stroke:#181818;stroke-width:0.5;"/><text fill="#000000" font-family="sans-serif" font-size="14" lengthAdjust="spacing" textLength="102.416" x="502.5398" y="140.3531">Visualizar sinal</text><text fill="#000000" font-family="sans-serif" font-size="14" lengthAdjust="spacing" textLength="126.9434" x="490.2761" y="156.8414">(v&#237;deo + variantes)</text></g><g id="elem_UC_Login"><ellipse cx="553.328" cy="206.3539" fill="#F1F1F1" rx="69.828" ry="16.3656" style="stroke:#181818;stroke-width:0.5;"/><text fill="#000000" font-family="sans-serif" font-size="14" lengthAdjust="spacing" textLength="93.0234" x="504.9273" y="210.1262">Autenticar-se</text></g><g id="elem_UC_Submeter"><ellipse cx="553.6052" cy="267.3751" fill="#F1F1F1" rx="109.6052" ry="26.3868" style="stroke:#181818;stroke-width:0.5;"/><text fill="#000000" font-family="sans-serif" font-size="14" lengthAdjust="spacing" textLength="138.3184" x="481.446" y="263.1486">Submeter novo sinal</text><text fill="#000000" font-family="sans-serif" font-size="14" lengthAdjust="spacing" textLength="69.7744" x="515.718" y="279.6368">com v&#237;deo</text></g><g id="elem_UC_Acompanhar"><ellipse cx="553.5834" cy="338.3791" fill="#F1F1F1" rx="110.5834" ry="26.3908" style="stroke:#181818;stroke-width:0.5;"/><text fill="#000000" font-family="sans-serif" font-size="14" lengthAdjust="spacing" textLength="139.6719" x="480.7474" y="334.1525">Acompanhar minhas</text><text fill="#000000" font-family="sans-serif" font-size="14" lengthAdjust="spacing" textLength="79.5635" x="510.8016" y="350.6408">submiss&#245;es</text></g><g id="elem_UC_Aprovar"><ellipse cx="553.3532" cy="409.307" fill="#F1F1F1" rx="102.3532" ry="26.3187" style="stroke:#181818;stroke-width:0.5;"/><text fill="#000000" font-family="sans-serif" font-size="14" lengthAdjust="spacing" textLength="127.1484" x="489.2078" y="404.4879">Aprovar novo sinal</text><text fill="#000000" font-family="sans-serif" font-size="14" lengthAdjust="spacing" textLength="128.502" x="488.531" y="420.9762">com v&#237;deo (UC-01)</text></g><g id="elem_UC_Rejeitar"><ellipse cx="553.2997" cy="470.4482" fill="#F1F1F1" rx="67.7997" ry="15.9599" style="stroke:#181818;stroke-width:0.5;"/><text fill="#000000" font-family="sans-serif" font-size="14" lengthAdjust="spacing" textLength="87.5342" x="506.5326" y="474.4658">Rejeitar sinal</text></g><g id="elem_UC_Editar"><ellipse cx="553.5072" cy="519.5897" fill="#F1F1F1" rx="63.5072" ry="15.1014" style="stroke:#181818;stroke-width:0.5;"/><text fill="#000000" font-family="sans-serif" font-size="14" lengthAdjust="spacing" textLength="75.2227" x="512.8958" y="523.6073">Editar sinal</text></g><g id="elem_UC_Excluir"><ellipse cx="553.3093" cy="568.5501" fill="#F1F1F1" rx="65.8093" ry="15.5619" style="stroke:#181818;stroke-width:0.5;"/><text fill="#000000" font-family="sans-serif" font-size="14" lengthAdjust="spacing" textLength="81.9355" x="509.3415" y="572.5677">Excluir sinal</text></g><g id="elem_UC_Usuarios"><ellipse cx="553.4241" cy="628.3389" fill="#F1F1F1" rx="101.4241" ry="26.3506" style="stroke:#181818;stroke-width:0.5;"/><text fill="#000000" font-family="sans-serif" font-size="14" lengthAdjust="spacing" textLength="126.998" x="486.925" y="624.1123">Gerenciar usu&#225;rios</text><text fill="#000000" font-family="sans-serif" font-size="14" lengthAdjust="spacing" textLength="56.5674" x="522.1404" y="640.6006">e pap&#233;is</text></g><g id="elem_UC_Auditoria"><ellipse cx="553.5226" cy="699.351" fill="#F1F1F1" rx="104.0226" ry="26.3627" style="stroke:#181818;stroke-width:0.5;"/><text fill="#000000" font-family="sans-serif" font-size="14" lengthAdjust="spacing" textLength="130.5938" x="485.2257" y="695.1244">Consultar auditoria</text><text fill="#000000" font-family="sans-serif" font-size="14" lengthAdjust="spacing" textLength="44.9121" x="528.0666" y="711.6127">(LGPD)</text></g><g id="elem_UC_Consent"><ellipse cx="887.7391" cy="267.3361" fill="#F1F1F1" rx="124.7391" ry="27.3478" style="stroke:#181818;stroke-width:0.5;"/><text fill="#000000" font-family="sans-serif" font-size="14" lengthAdjust="spacing" textLength="166.1816" x="801.6482" y="263.1095">Registrar consentimento</text><text fill="#000000" font-family="sans-serif" font-size="14" lengthAdjust="spacing" textLength="44.9121" x="862.283" y="279.5978">(LGPD)</text></g><polygon fill="none" points="346.8779,178.2761,330.5205,187.8904,339.5606,195.782,346.8779,178.2761" style="stroke:#181818;stroke-width:1;"/><path d="M302.4051,229.2215 C316.6795,212.8695 321.3368,207.5344 335.0406,191.8362 " fill="none" style="stroke:#181818;stroke-width:1;"/><polygon fill="none" points="247.9942,305.4998,234.5778,318.9162,245.311,324.2828,247.9942,305.4998" style="stroke:#181818;stroke-width:1;"/><path d="M184.5914,432.3055 C202.738,396.0124 221.8261,357.836 239.9444,321.5995 " fill="none" style="stroke:#181818;stroke-width:1;"/><polygon fill="none" points="139.6642,499.4002,123.5845,509.4721,132.8436,517.1056,139.6642,499.4002" style="stroke:#181818;stroke-width:1;"/><path d="M87.0284,563.2455 C103.8389,542.855 112.7355,532.0637 128.214,513.2888 " fill="none" style="stroke:#181818;stroke-width:1;"/><polygon fill="#181818" points="485.4147,94.5458,475.7701,92.5506,480.529,95.6088,477.4708,100.3677,485.4147,94.5458" style="stroke:#181818;stroke-width:1;"/><path d="M406.282,124.7237 C415.1501,119.0943 425.174,113.4644 435,109.4883 C450.8531,103.0733 462.743,99.4785 479.5519,95.8214 " fill="none" style="stroke:#181818;stroke-width:1;"/><polygon fill="#181818" points="452.4565,145.4883,443.4565,141.4883,447.4565,145.4883,443.4565,149.4883,452.4565,145.4883" style="stroke:#181818;stroke-width:1;"/><path d="M406.0063,145.4883 C419.0813,145.4883 429.446,145.4883 446.4565,145.4883 " fill="none" style="stroke:#181818;stroke-width:1;"/><polygon fill="#181818" points="483.1205,220.5169,473.5007,218.4054,478.2223,221.5208,475.1069,226.2425,483.1205,220.5169" style="stroke:#181818;stroke-width:1;"/><path d="M310.2301,257.5573 C316.1866,256.1655 322.2463,254.773 328,253.4883 C379.883,241.9039 432.8277,230.8249 477.2427,221.7216 " fill="none" style="stroke:#181818;stroke-width:1;"/><polygon fill="#181818" points="443.8858,267.4883,434.8858,263.4883,438.8858,267.4883,434.8858,271.4883,443.8858,267.4883" style="stroke:#181818;stroke-width:1;"/><path d="M310.2233,267.4883 C345.2374,267.4883 391.1113,267.4883 437.8858,267.4883 " fill="none" style="stroke:#181818;stroke-width:1;"/><polygon fill="#181818" points="446.6493,311.9789,438.8906,305.9123,441.7991,310.7642,436.9471,313.6726,446.6493,311.9789" style="stroke:#181818;stroke-width:1;"/><path d="M310.2233,277.8123 C345.9285,286.7543 393.3453,298.6294 440.829,310.5213 " fill="none" style="stroke:#181818;stroke-width:1;"/><polygon fill="#181818" points="762.8718,267.4883,753.8718,263.4883,757.8718,267.4883,753.8718,271.4883,762.8718,267.4883" style="stroke:#181818;stroke-width:1;"/><path d="M663.2092,267.4883 C695.0745,267.4883 724.1502,267.4883 756.8718,267.4883 " fill="none" style="stroke:#181818;stroke-width:1;stroke-dasharray:7.0,7.0;"/><text fill="#000000" font-family="sans-serif" font-size="13" lengthAdjust="spacing" textLength="59.3569" x="684" y="263.0566">&#171;include&#187;</text><polygon fill="#181818" points="450.66,418.2036,441.2956,415.1525,445.6866,418.7189,442.1202,423.1099,450.66,418.2036" style="stroke:#181818;stroke-width:1;"/><path d="M189.4148,461.5588 C195.1174,459.6705 201.2256,457.842 207,456.4883 C287.8912,437.524 375.3874,426.0033 444.6919,418.822 " fill="none" style="stroke:#181818;stroke-width:1;"/><polygon fill="#181818" points="485.145,470.4883,476.145,466.4883,480.145,470.4883,476.145,474.4883,485.145,470.4883" style="stroke:#181818;stroke-width:1;"/><path d="M189.126,470.4883 C246.8921,470.4883 390.9808,470.4883 479.145,470.4883 " fill="none" style="stroke:#181818;stroke-width:1;"/><polygon fill="#181818" points="489.9648,511.5704,481.5385,506.4716,485.0044,510.9423,480.5336,514.4082,489.9648,511.5704" style="stroke:#181818;stroke-width:1;"/><path d="M189.126,473.4797 C247.9588,480.9288 396.6029,499.7494 484.0123,510.8167 " fill="none" style="stroke:#181818;stroke-width:1;"/><polygon fill="#181818" points="487.3245,574.5353,478.0417,571.2445,482.3395,574.9226,478.6614,579.2205,487.3245,574.5353" style="stroke:#181818;stroke-width:1;"/><path d="M103.1947,587.493 C121.8367,583.1541 143.5039,579.4883 163.5,579.4883 C163.5,579.4883 163.5,579.4883 377.5,579.4883 C413.8781,579.4883 448.4442,577.5562 481.3425,575.0001 " fill="none" style="stroke:#181818;stroke-width:1;"/><polygon fill="#181818" points="451.652,623.8498,442.7869,619.5591,446.6546,623.6871,442.5266,627.5549,451.652,623.8498" style="stroke:#181818;stroke-width:1;"/><path d="M103.2319,614.8474 C121.8786,618.9891 143.5393,622.4883 163.5,622.4883 C163.5,622.4883 163.5,622.4883 377.5,622.4883 C401.5158,622.4883 421.3778,622.8645 445.6552,623.6546 " fill="none" style="stroke:#181818;stroke-width:1;"/><polygon fill="#181818" points="449.4838,686.1352,440.8793,681.3431,444.504,685.6862,440.1609,689.3108,449.4838,686.1352" style="stroke:#181818;stroke-width:1;"/><path d="M84.7494,639.6164 C104.3952,660.6254 132.3281,682.4883 163.5,682.4883 C163.5,682.4883 163.5,682.4883 377.5,682.4883 C400.8516,682.4883 419.8984,683.4675 443.508,685.5964 " fill="none" style="stroke:#181818;stroke-width:1;"/><!--SRC=[TLCxRjj04Ett51DLCWmPJXiO11mwSACYi25N1e8HEQOcfdQ9dQKIvmFa4Bb0oXJfaXFe9Zv9XkP7Irbk1F7DU_DxiwygZyKQeSG7LmUGDGMqQ0A7ak22CtPs-ykpWpalFSenFFxugJWM7bML4wGeJfe_2t4mNMx_sbgEJ4bt0O83pyKgGCwUig2fZDophL2r82lCtIUs1TnXAHH5AipkiQ3hyA0jD4AqHKd6O1QSXniMLYHGzvsw4fVEQpBV8LUqOHc-plCrMvRGCan4XzdiMnBbwtGj7ASTfMZ3VGqpz0UJ0zkQm5S3K0jbACfuMqk67eGjiam01HRfXnQCQTfIZIL_wQZbhPrkjdzoSd0C6_JST2j7lVw6HkBpEf0Dh2bdGZrdxWgsCUkwNghJvC6wZUkhP6uDRQ5UrzD61PHMeLrfTxgM5Sgj5QMnoFOV3LFjM2DjvPrEy49Lc2xIsUdhORAE7IUuee-aTdMBwOaz6ZFVvSzvBJPYVSxAclTfBHZpBicJpLWJrb8_MQnZavvgjVszitAXlZMXM9awNK_Pj8ArbdTgd_evltn_iPkp3umdBPvEpaEc6HfBr_hZzhLf6pJVZHakMKyqYIxh6TvSpFWT9BiZEH0Ohk10BF8vOiB9IH9r1s_Wx8ojRZMd98aUMXBRl0SFfkxXdOdxZpA9dJiO7Dmv61rC-0y0]--></g></svg>