<svg xmlns="http://www.w3.org/2000/svg" xmlns:xlink="http://www.w3.org/1999/xlink" contentStyleType="text/css" height="1117px" preserveAspectRatio="none" style="width:1452px;height:1117px;background:#FFFFFF;" version="1.1" viewBox="0 0 1452 1117" width="1452px" zoomAndPan="magnify"><title>Dicion&#225;rio Libras+ &#8212; Diagrama de Classes (Dom&#237;nio + MVC)</title><defs/><g><text fill="#000000" font-family="Helvetica" font-size="14" font-weight="bold" lengthAdjust="spacing" textLength="401.4404" x="521.5298" y="20.7803">Dicion&#225;rio Libras+ &#8212; Diagrama de Classes (Dom&#237;nio + MVC)</text><!--cluster Controller--><g id="cluster_Controller"><path d="M455.5,47 L523.3896,47 A3.75,3.75 0 0 1 525.8896,49.5 L532.8896,67 L1107.5,67 A2.5,2.5 0 0 1 1110,69.5 L1110,101.5 A2.5,2.5 0 0 1 1107.5,104 L455.5,104 A2.5,2.5 0 0 1 453,101.5 L453,49.5 A2.5,2.5 0 0 1 455.5,47 " fill="#F4F6F8" style="stroke:#000000;stroke-width:1.5;"/><line style="stroke:#000000;stroke-width:1.5;" x1="453" x2="532.8896" y1="67" y2="67"/><text fill="#000000" font-family="Helvetica" font-size="14" font-weight="bold" lengthAdjust="spacing" textLength="66.8896" x="457" y="59.7803">Controller</text></g><!--cluster Service (casos de uso)--><g id="cluster_Service (casos de uso)"><path d="M687.5,123 L840.2373,123 A3.75,3.75 0 0 1 842.7373,125.5 L849.7373,143 L1160.5,143 A2.5,2.5 0 0 1 1163,145.5 L1163,269.5 A2.5,2.5 0 0 1 1160.5,272 L687.5,272 A2.5,2.5 0 0 1 685,269.5 L685,125.5 A2.5,2.5 0 0 1 687.5,123 " fill="#EAF1FB" style="stroke:#000000;stroke-width:1.5;"/><line style="stroke:#000000;stroke-width:1.5;" x1="685" x2="849.7373" y1="143" y2="143"/><text fill="#000000" font-family="Helvetica" font-size="14" font-weight="bold" lengthAdjust="spacing" textLength="151.7373" x="689" y="135.7803">Service (casos de uso)</text></g><!--cluster Repository (dados)--><g id="cluster_Repository (dados)"><path d="M314.5,291 L443.0654,291 A3.75,3.75 0 0 1 445.5654,293.5 L452.5654,311 L1142.5,311 A2.5,2.5 0 0 1 1145,313.5 L1145,345.5 A2.5,2.5 0 0 1 1142.5,348 L314.5,348 A2.5,2.5 0 0 1 312,345.5 L312,293.5 A2.5,2.5 0 0 1 314.5,291 " fill="#EFF7EF" style="stroke:#000000;stroke-width:1.5;"/><line style="stroke:#000000;stroke-width:1.5;" x1="312" x2="452.5654" y1="311" y2="311"/><text fill="#000000" font-family="Helvetica" font-size="14" font-weight="bold" lengthAdjust="spacing" textLength="127.5654" x="316" y="303.7803">Repository (dados)</text></g><!--class Papel--><g id="elem_Papel"><rect codeLine="14" fill="#F1F1F1" height="88" id="Papel" rx="2.5" ry="2.5" style="stroke:#181818;stroke-width:0.5;" width="129.4482" x="830.5" y="670"/><text fill="#000000" font-family="Helvetica" font-size="14" lengthAdjust="spacing" textLength="35.8066" x="877.3208" y="685.7803">Papel</text><line style="stroke:#181818;stroke-width:0.5;" x1="831.5" x2="958.9482" y1="694" y2="694"/><text fill="#000000" font-family="Helvetica" font-size="14" lengthAdjust="spacing" textLength="72.3447" x="836.5" y="708.7803">VISITANTE</text><text fill="#000000" font-family="Helvetica" font-size="14" lengthAdjust="spacing" textLength="108.9102" x="836.5" y="722.7803">COLABORADOR</text><text fill="#000000" font-family="Helvetica" font-size="14" lengthAdjust="spacing" textLength="63.0137" x="836.5" y="736.7803">REVISOR</text><text fill="#000000" font-family="Helvetica" font-size="14" lengthAdjust="spacing" textLength="117.4482" x="836.5" y="750.7803">ADMINISTRADOR</text></g><!--class StatusSinal--><g id="elem_StatusSinal"><rect codeLine="20" fill="#F1F1F1" height="102" id="StatusSinal" rx="2.5" ry="2.5" style="stroke:#181818;stroke-width:0.5;" width="92.9102" x="531.5" y="876"/><text fill="#000000" font-family="Helvetica" font-size="14" lengthAdjust="spacing" textLength="70.8203" x="542.5449" y="891.7803">StatusSinal</text><line style="stroke:#181818;stroke-width:0.5;" x1="532.5" x2="623.4102" y1="900" y2="900"/><text fill="#000000" font-family="Helvetica" font-size="14" lengthAdjust="spacing" textLength="80.1172" x="537.5" y="914.7803">RASCUNHO</text><text fill="#000000" font-family="Helvetica" font-size="14" lengthAdjust="spacing" textLength="76.2344" x="537.5" y="928.7803">PENDENTE</text><text fill="#000000" font-family="Helvetica" font-size="14" lengthAdjust="spacing" textLength="79.3516" x="537.5" y="942.7803">APROVADO</text><text fill="#000000" font-family="Helvetica" font-size="14" lengthAdjust="spacing" textLength="78.5654" x="537.5" y="956.7803">REJEITADO</text><text fill="#000000" font-family="Helvetica" font-size="14" lengthAdjust="spacing" textLength="80.9102" x="537.5" y="970.7803">PUBLICADO</text></g><!--class ClassificacaoSinal--><g id="elem_ClassificacaoSinal"><rect codeLine="27" fill="#F1F1F1" height="88" id="ClassificacaoSinal" rx="2.5" ry="2.5" style="stroke:#181818;stroke-width:0.5;" width="246.1445" x="643" y="883"/><text fill="#000000" font-family="Helvetica" font-size="14" lengthAdjust="spacing" textLength="113.6064" x="709.269" y="898.7803">ClassificacaoSinal</text><line style="stroke:#181818;stroke-width:0.5;" x1="644" x2="888.1445" y1="907" y2="907"/><text fill="#000000" font-family="Helvetica" font-size="14" lengthAdjust="spacing" textLength="70.7861" x="649" y="921.7803">UMA_MAO</text><text fill="#000000" font-family="Helvetica" font-size="14" lengthAdjust="spacing" textLength="234.1445" x="649" y="935.7803">DOIS_MOVIMENTOS_DIFERENTES</text><text fill="#000000" font-family="Helvetica" font-size="14" lengthAdjust="spacing" textLength="192.9238" x="649" y="949.7803">DOIS_MOVIMENTOS_IGUAIS</text><text fill="#000000" font-family="Helvetica" font-size="14" lengthAdjust="spacing" textLength="168.0273" x="649" y="963.7803">MOVIMENTOS_DA_FACE</text></g><!--class PontoArticulacao--><g id="elem_PontoArticulacao"><rect codeLine="33" fill="#F1F1F1" height="116" id="PontoArticulacao" rx="2.5" ry="2.5" style="stroke:#181818;stroke-width:0.5;" width="111.8408" x="6" y="869"/><text fill="#000000" font-family="Helvetica" font-size="14" lengthAdjust="spacing" textLength="105.8408" x="9" y="884.7803">PontoArticulacao</text><line style="stroke:#181818;stroke-width:0.5;" x1="7" x2="116.8408" y1="893" y2="893"/><text fill="#000000" font-family="Helvetica" font-size="14" lengthAdjust="spacing" textLength="57.5723" x="12" y="907.7803">CABECA</text><text fill="#000000" font-family="Helvetica" font-size="14" lengthAdjust="spacing" textLength="49.0137" x="12" y="921.7803">OLHOS</text><text fill="#000000" font-family="Helvetica" font-size="14" lengthAdjust="spacing" textLength="42.0068" x="12" y="935.7803">PEITO</text><text fill="#000000" font-family="Helvetica" font-size="14" lengthAdjust="spacing" textLength="62.2207" x="12" y="949.7803">CINTURA</text><text fill="#000000" font-family="Helvetica" font-size="14" lengthAdjust="spacing" textLength="59.124" x="12" y="963.7803">BRACOS</text><text fill="#000000" font-family="Helvetica" font-size="14" lengthAdjust="spacing" textLength="41.2275" x="12" y="977.7803">MAOS</text></g><!--class OrigemSinal--><g id="elem_OrigemSinal"><rect codeLine="41" fill="#F1F1F1" height="74" id="OrigemSinal" rx="2.5" ry="2.5" style="stroke:#181818;stroke-width:0.5;" width="83.0273" x="136.5" y="890"/><text fill="#000000" font-family="Helvetica" font-size="14" lengthAdjust="spacing" textLength="77.0273" x="139.5" y="905.7803">OrigemSinal</text><line style="stroke:#181818;stroke-width:0.5;" x1="137.5" x2="218.5273" y1="914" y2="914"/><text fill="#000000" font-family="Helvetica" font-size="14" lengthAdjust="spacing" textLength="52.1514" x="142.5" y="928.7803">nacional</text><text fill="#000000" font-family="Helvetica" font-size="14" lengthAdjust="spacing" textLength="49.8135" x="142.5" y="942.7803">regional</text><text fill="#000000" font-family="Helvetica" font-size="14" lengthAdjust="spacing" textLength="70.041" x="142.5" y="956.7803">estrangeira</text></g><!--class DecisaoRevisao--><g id="elem_DecisaoRevisao"><rect codeLine="46" fill="#F1F1F1" height="60" id="DecisaoRevisao" rx="2.5" ry="2.5" style="stroke:#181818;stroke-width:0.5;" width="107.1582" x="942.5" y="1036"/><text fill="#000000" font-family="Helvetica" font-size="14" lengthAdjust="spacing" textLength="101.1582" x="945.5" y="1051.7803">DecisaoRevisao</text><line style="stroke:#181818;stroke-width:0.5;" x1="943.5" x2="1048.6582" y1="1060" y2="1060"/><text fill="#000000" font-family="Helvetica" font-size="14" lengthAdjust="spacing" textLength="79.3516" x="948.5" y="1074.7803">APROVADO</text><text fill="#000000" font-family="Helvetica" font-size="14" lengthAdjust="spacing" textLength="78.5654" x="948.5" y="1088.7803">REJEITADO</text></g><!--class Usuario--><g id="elem_Usuario"><rect codeLine="53" fill="#F1F1F1" height="166" id="Usuario" rx="2.5" ry="2.5" style="stroke:#181818;stroke-width:0.5;" width="199.9473" x="908" y="377"/><text fill="#000000" font-family="Helvetica" font-size="14" lengthAdjust="spacing" textLength="48.2412" x="983.853" y="392.7803">Usuario</text><line style="stroke:#181818;stroke-width:0.5;" x1="909" x2="1106.9473" y1="401" y2="401"/><text fill="#000000" font-family="Helvetica" font-size="14" lengthAdjust="spacing" textLength="61.0723" x="914" y="415.7803">+id: UUID</text><text fill="#000000" font-family="Helvetica" font-size="14" lengthAdjust="spacing" textLength="85.21" x="914" y="429.7803">+nome: string</text><text fill="#000000" font-family="Helvetica" font-size="14" lengthAdjust="spacing" textLength="83.6445" x="914" y="443.7803">+email: string</text><text fill="#000000" font-family="Helvetica" font-size="14" lengthAdjust="spacing" textLength="117.5029" x="914" y="457.7803">-senhaHash: string</text><text fill="#000000" font-family="Helvetica" font-size="14" lengthAdjust="spacing" textLength="86.0166" x="914" y="471.7803">+papel: Papel</text><text fill="#000000" font-family="Helvetica" font-size="14" lengthAdjust="spacing" textLength="95.3545" x="914" y="485.7803">+ativo: boolean</text><line style="stroke:#181818;stroke-width:1;" x1="909" x2="1106.9473" y1="493" y2="493"/><text fill="#000000" font-family="Helvetica" font-size="14" lengthAdjust="spacing" textLength="187.9473" x="914" y="507.7803">+pode(p: Permissao): boolean</text><text fill="#000000" font-family="Helvetica" font-size="14" lengthAdjust="spacing" textLength="177.0439" x="914" y="521.7803">+ehAdministrador(): boolean</text><text fill="#000000" font-family="Helvetica" font-size="14" lengthAdjust="spacing" textLength="169.2441" x="914" y="535.7803">+toPublic(): UsuarioPublico</text></g><!--class Sinal--><g id="elem_Sinal"><rect codeLine="66" fill="#F1F1F1" height="236" id="Sinal" rx="2.5" ry="2.5" style="stroke:#181818;stroke-width:0.5;" width="245.7959" x="303" y="596"/><text fill="#000000" font-family="Helvetica" font-size="14" lengthAdjust="spacing" textLength="31.1309" x="410.3325" y="611.7803">Sinal</text><line style="stroke:#181818;stroke-width:0.5;" x1="304" x2="547.7959" y1="620" y2="620"/><text fill="#000000" font-family="Helvetica" font-size="14" lengthAdjust="spacing" textLength="61.0723" x="309" y="634.7803">+id: UUID</text><text fill="#000000" font-family="Helvetica" font-size="14" lengthAdjust="spacing" textLength="96.1064" x="309" y="648.7803">+palavra: string</text><text fill="#000000" font-family="Helvetica" font-size="14" lengthAdjust="spacing" textLength="78.21" x="309" y="662.7803">+numero: int</text><text fill="#000000" font-family="Helvetica" font-size="14" lengthAdjust="spacing" textLength="103.1201" x="309" y="676.7803">+acepcao: string</text><text fill="#000000" font-family="Helvetica" font-size="14" lengthAdjust="spacing" textLength="103.1064" x="309" y="690.7803">+exemplo: string</text><text fill="#000000" font-family="Helvetica" font-size="14" lengthAdjust="spacing" textLength="233.7959" x="309" y="704.7803">+classeGramatical: ClasseGramatical</text><text fill="#000000" font-family="Helvetica" font-size="14" lengthAdjust="spacing" textLength="135.7754" x="309" y="718.7803">+origem: OrigemSinal</text><text fill="#000000" font-family="Helvetica" font-size="14" lengthAdjust="spacing" textLength="124.127" x="309" y="732.7803">+status: StatusSinal</text><text fill="#000000" font-family="Helvetica" font-size="14" lengthAdjust="spacing" textLength="226.085" x="309" y="746.7803">+pontoArticulacao: PontoArticulacao</text><text fill="#000000" font-family="Helvetica" font-size="14" lengthAdjust="spacing" textLength="157.5889" x="309" y="760.7803">+configuracaoMao: string</text><text fill="#000000" font-family="Helvetica" font-size="14" lengthAdjust="spacing" textLength="208.9268" x="309" y="774.7803">+classificacao: ClassificacaoSinal</text><line style="stroke:#181818;stroke-width:1;" x1="304" x2="547.7959" y1="796" y2="796"/><text fill="#000000" font-family="Helvetica" font-size="14" lengthAdjust="spacing" textLength="163.0576" x="309" y="810.7803">+estaPublicado(): boolean</text><text fill="#000000" font-family="Helvetica" font-size="14" lengthAdjust="spacing" textLength="229.168" x="309" y="824.7803">+aplicarTransicao(acao): StatusSinal</text></g><!--class VarianteSinal--><g id="elem_VarianteSinal"><rect codeLine="84" fill="#F1F1F1" height="88" id="VarianteSinal" rx="2.5" ry="2.5" style="stroke:#181818;stroke-width:0.5;" width="122.1064" x="238" y="883"/><text fill="#000000" font-family="Helvetica" font-size="14" lengthAdjust="spacing" textLength="83.2754" x="257.4155" y="898.7803">VarianteSinal</text><line style="stroke:#181818;stroke-width:0.5;" x1="239" x2="359.1064" y1="907" y2="907"/><text fill="#000000" font-family="Helvetica" font-size="14" lengthAdjust="spacing" textLength="61.0723" x="244" y="921.7803">+id: UUID</text><text fill="#000000" font-family="Helvetica" font-size="14" lengthAdjust="spacing" textLength="89.1064" x="244" y="935.7803">+regiao: string</text><text fill="#000000" font-family="Helvetica" font-size="14" lengthAdjust="spacing" textLength="101.541" x="244" y="949.7803">+videoUrl: string</text><text fill="#000000" font-family="Helvetica" font-size="14" lengthAdjust="spacing" textLength="110.1064" x="244" y="963.7803">+descricao: string</text></g><!--class Assunto--><g id="elem_Assunto"><rect codeLine="90" fill="#F1F1F1" height="60" id="Assunto" rx="2.5" ry="2.5" style="stroke:#181818;stroke-width:0.5;" width="97.21" x="416.5" y="897"/><text fill="#000000" font-family="Helvetica" font-size="14" lengthAdjust="spacing" textLength="50.5859" x="439.812" y="912.7803">Assunto</text><line style="stroke:#181818;stroke-width:0.5;" x1="417.5" x2="512.71" y1="921" y2="921"/><text fill="#000000" font-family="Helvetica" font-size="14" lengthAdjust="spacing" textLength="61.0723" x="422.5" y="935.7803">+id: UUID</text><text fill="#000000" font-family="Helvetica" font-size="14" lengthAdjust="spacing" textLength="85.21" x="422.5" y="949.7803">+nome: string</text></g><!--class Video--><g id="elem_Video"><rect codeLine="94" fill="#F1F1F1" height="88" id="Video" rx="2.5" ry="2.5" style="stroke:#181818;stroke-width:0.5;" width="129.8994" x="295" y="1022"/><text fill="#000000" font-family="Helvetica" font-size="14" lengthAdjust="spacing" textLength="35.8066" x="342.0464" y="1037.7803">Video</text><line style="stroke:#181818;stroke-width:0.5;" x1="296" x2="423.8994" y1="1046" y2="1046"/><text fill="#000000" font-family="Helvetica" font-size="14" lengthAdjust="spacing" textLength="61.0723" x="301" y="1060.7803">+id: UUID</text><text fill="#000000" font-family="Helvetica" font-size="14" lengthAdjust="spacing" textLength="65.748" x="301" y="1074.7803">+url: string</text><text fill="#000000" font-family="Helvetica" font-size="14" lengthAdjust="spacing" textLength="117.8994" x="301" y="1088.7803">+legendaUrl: string</text><text fill="#000000" font-family="Helvetica" font-size="14" lengthAdjust="spacing" textLength="106.2441" x="301" y="1102.7803">+duracaoSeg: int</text></g><!--class Revisao--><g id="elem_Revisao"><rect codeLine="100" fill="#F1F1F1" height="88" id="Revisao" rx="2.5" ry="2.5" style="stroke:#181818;stroke-width:0.5;" width="177.3682" x="907.5" y="883"/><text fill="#000000" font-family="Helvetica" font-size="14" lengthAdjust="spacing" textLength="50.5791" x="970.8945" y="898.7803">Revisao</text><line style="stroke:#181818;stroke-width:0.5;" x1="908.5" x2="1083.8682" y1="907" y2="907"/><text fill="#000000" font-family="Helvetica" font-size="14" lengthAdjust="spacing" textLength="61.0723" x="913.5" y="921.7803">+id: UUID</text><text fill="#000000" font-family="Helvetica" font-size="14" lengthAdjust="spacing" textLength="165.3682" x="913.5" y="935.7803">+decisao: DecisaoRevisao</text><text fill="#000000" font-family="Helvetica" font-size="14" lengthAdjust="spacing" textLength="119.4443" x="913.5" y="949.7803">+comentario: string</text><text fill="#000000" font-family="Helvetica" font-size="14" lengthAdjust="spacing" textLength="96.8994" x="913.5" y="963.7803">+data: datetime</text></g><!--class ConsentRecord--><g id="elem_ConsentRecord"><rect codeLine="106" fill="#F1F1F1" height="88" id="ConsentRecord" rx="2.5" ry="2.5" style="stroke:#181818;stroke-width:0.5;" width="235.7744" x="1052" y="670"/><text fill="#000000" font-family="Helvetica" font-size="14" lengthAdjust="spacing" textLength="97.2754" x="1121.2495" y="685.7803">ConsentRecord</text><line style="stroke:#181818;stroke-width:0.5;" x1="1053" x2="1286.7744" y1="694" y2="694"/><text fill="#000000" font-family="Helvetica" font-size="14" lengthAdjust="spacing" textLength="61.0723" x="1058" y="708.7803">+id: UUID</text><text fill="#000000" font-family="Helvetica" font-size="14" lengthAdjust="spacing" textLength="185.6162" x="1058" y="722.7803">+tipoDado: TipoDadoSensivel</text><text fill="#000000" font-family="Helvetica" font-size="14" lengthAdjust="spacing" textLength="151.375" x="1058" y="736.7803">+contemMenor: boolean</text><text fill="#000000" font-family="Helvetica" font-size="14" lengthAdjust="spacing" textLength="223.7744" x="1058" y="750.7803">+consentimentoConcedido: boolean</text></g><!--class AuditLog--><g id="elem_AuditLog"><rect codeLine="112" fill="#F1F1F1" height="88" id="AuditLog" rx="2.5" ry="2.5" style="stroke:#181818;stroke-width:0.5;" width="139.2441" x="1306.5" y="670"/><text fill="#000000" font-family="Helvetica" font-size="14" lengthAdjust="spacing" textLength="55.2686" x="1348.4878" y="685.7803">AuditLog</text><line style="stroke:#181818;stroke-width:0.5;" x1="1307.5" x2="1444.7441" y1="694" y2="694"/><text fill="#000000" font-family="Helvetica" font-size="14" lengthAdjust="spacing" textLength="61.0723" x="1312.5" y="708.7803">+id: UUID</text><text fill="#000000" font-family="Helvetica" font-size="14" lengthAdjust="spacing" textLength="80.5479" x="1312.5" y="722.7803">+acao: string</text><text fill="#000000" font-family="Helvetica" font-size="14" lengthAdjust="spacing" textLength="103.9063" x="1312.5" y="736.7803">+entidade: string</text><text fill="#000000" font-family="Helvetica" font-size="14" lengthAdjust="spacing" textLength="127.2441" x="1312.5" y="750.7803">+dataHora: datetime</text></g><!--class PublicController--><g id="elem_PublicController"><rect codeLine="139" fill="#F1F1F1" height="24" id="PublicController" rx="2.5" ry="2.5" style="stroke:#181818;stroke-width:0.5;" width="104.8203" x="596.5" y="72"/><text fill="#000000" font-family="Helvetica" font-size="14" lengthAdjust="spacing" textLength="98.8203" x="599.5" y="87.7803">PublicController</text></g><!--class AuthController--><g id="elem_AuthController"><rect codeLine="140" fill="#F1F1F1" height="24" id="AuthController" rx="2.5" ry="2.5" style="stroke:#181818;stroke-width:0.5;" width="95.4893" x="1006.5" y="72"/><text fill="#000000" font-family="Helvetica" font-size="14" lengthAdjust="spacing" textLength="89.4893" x="1009.5" y="87.7803">AuthController</text></g><!--class ColaboradorController--><g id="elem_ColaboradorController"><rect codeLine="141" fill="#F1F1F1" height="24" id="ColaboradorController" rx="2.5" ry="2.5" style="stroke:#181818;stroke-width:0.5;" width="143.7373" x="720" y="72"/><text fill="#000000" font-family="Helvetica" font-size="14" lengthAdjust="spacing" textLength="137.7373" x="723" y="87.7803">ColaboradorController</text></g><!--class RevisaoController--><g id="elem_RevisaoController"><rect codeLine="142" fill="#F1F1F1" height="24" id="RevisaoController" rx="2.5" ry="2.5" style="stroke:#181818;stroke-width:0.5;" width="117.2686" x="461.5" y="72"/><text fill="#000000" font-family="Helvetica" font-size="14" lengthAdjust="spacing" textLength="111.2686" x="464.5" y="87.7803">RevisaoController</text></g><!--class AdminController--><g id="elem_AdminController"><rect codeLine="143" fill="#F1F1F1" height="24" id="AdminController" rx="2.5" ry="2.5" style="stroke:#181818;stroke-width:0.5;" width="106.3721" x="882" y="72"/><text fill="#000000" font-family="Helvetica" font-size="14" lengthAdjust="spacing" textLength="100.3721" x="885" y="87.7803">AdminController</text></g><!--class AuthService--><g id="elem_AuthService"><rect codeLine="146" fill="#F1F1F1" height="60" id="AuthService" rx="2.5" ry="2.5" style="stroke:#181818;stroke-width:0.5;" width="147.0029" x="1007.5" y="176"/><text fill="#000000" font-family="Helvetica" font-size="14" lengthAdjust="spacing" textLength="75.4824" x="1043.2603" y="191.7803">AuthService</text><line style="stroke:#181818;stroke-width:0.5;" x1="1008.5" x2="1153.5029" y1="200" y2="200"/><text fill="#000000" font-family="Helvetica" font-size="14" lengthAdjust="spacing" textLength="124.8652" x="1013.5" y="214.7803">+registrar(): Usuario</text><text fill="#000000" font-family="Helvetica" font-size="14" lengthAdjust="spacing" textLength="135.0029" x="1013.5" y="228.7803">+autenticar(): Usuario</text></g><!--class SinalService--><g id="elem_SinalService"><rect codeLine="150" fill="#F1F1F1" height="116" id="SinalService" rx="2.5" ry="2.5" style="stroke:#181818;stroke-width:0.5;" width="140.0098" x="693" y="148"/><text fill="#000000" font-family="Helvetica" font-size="14" lengthAdjust="spacing" textLength="77.8135" x="724.0981" y="163.7803">SinalService</text><line style="stroke:#181818;stroke-width:0.5;" x1="694" x2="832.0098" y1="172" y2="172"/><text fill="#000000" font-family="Helvetica" font-size="14" lengthAdjust="spacing" textLength="128.0098" x="699" y="186.7803">+buscarPublicados()</text><text fill="#000000" font-family="Helvetica" font-size="14" lengthAdjust="spacing" textLength="114.7686" x="699" y="200.7803">+submeter(): Sinal</text><text fill="#000000" font-family="Helvetica" font-size="14" lengthAdjust="spacing" textLength="103.8789" x="699" y="214.7803">+aprovar(): Sinal</text><text fill="#000000" font-family="Helvetica" font-size="14" lengthAdjust="spacing" textLength="99.2031" x="699" y="228.7803">+rejeitar(): Sinal</text><text fill="#000000" font-family="Helvetica" font-size="14" lengthAdjust="spacing" textLength="91.4307" x="699" y="242.7803">+editar(): Sinal</text><text fill="#000000" font-family="Helvetica" font-size="14" lengthAdjust="spacing" textLength="57.9551" x="699" y="256.7803">+excluir()</text></g><!--class UsuarioService--><g id="elem_UsuarioService"><rect codeLine="158" fill="#F1F1F1" height="74" id="UsuarioService" rx="2.5" ry="2.5" style="stroke:#181818;stroke-width:0.5;" width="138.4375" x="851" y="169"/><text fill="#000000" font-family="Helvetica" font-size="14" lengthAdjust="spacing" textLength="94.9238" x="872.7568" y="184.7803">UsuarioService</text><line style="stroke:#181818;stroke-width:0.5;" x1="852" x2="988.4375" y1="193" y2="193"/><text fill="#000000" font-family="Helvetica" font-size="14" lengthAdjust="spacing" textLength="100.7412" x="857" y="207.7803">+criar(): Usuario</text><text fill="#000000" font-family="Helvetica" font-size="14" lengthAdjust="spacing" textLength="126.4375" x="857" y="221.7803">+atualizar(): Usuario</text><text fill="#000000" font-family="Helvetica" font-size="14" lengthAdjust="spacing" textLength="57.9551" x="857" y="235.7803">+excluir()</text></g><!--class UsuarioRepository--><g id="elem_UsuarioRepository"><rect codeLine="165" fill="#F1F1F1" height="24" id="UsuarioRepository" rx="2.5" ry="2.5" style="stroke:#181818;stroke-width:0.5;" width="121.1582" x="1015.5" y="316"/><text fill="#000000" font-family="Helvetica" font-size="14" lengthAdjust="spacing" textLength="115.1582" x="1018.5" y="331.7803">UsuarioRepository</text></g><!--class SinalRepository--><g id="elem_SinalRepository"><rect codeLine="166" fill="#F1F1F1" height="24" id="SinalRepository" rx="2.5" ry="2.5" style="stroke:#181818;stroke-width:0.5;" width="104.0479" x="320" y="316"/><text fill="#000000" font-family="Helvetica" font-size="14" lengthAdjust="spacing" textLength="98.0479" x="323" y="331.7803">SinalRepository</text></g><!--class RevisaoRepository--><g id="elem_RevisaoRepository"><rect codeLine="167" fill="#F1F1F1" height="24" id="RevisaoRepository" rx="2.5" ry="2.5" style="stroke:#181818;stroke-width:0.5;" width="123.4961" x="442.5" y="316"/><text fill="#000000" font-family="Helvetica" font-size="14" lengthAdjust="spacing" textLength="117.4961" x="445.5" y="331.7803">RevisaoRepository</text></g><!--class AssuntoRepository--><g id="elem_AssuntoRepository"><rect codeLine="168" fill="#F1F1F1" height="24" id="AssuntoRepository" rx="2.5" ry="2.5" style="stroke:#181818;stroke-width:0.5;" width="123.5029" x="584" y="316"/><text fill="#000000" font-family="Helvetica" font-size="14" lengthAdjust="spacing" textLength="117.5029" x="587" y="331.7803">AssuntoRepository</text></g><!--class AuditLogRepository--><g id="elem_AuditLogRepository"><rect codeLine="169" fill="#F1F1F1" height="24" id="AuditLogRepository" rx="2.5" ry="2.5" style="stroke:#181818;stroke-width:0.5;" width="128.1855" x="726" y="316"/><text fill="#000000" font-family="Helvetica" font-size="14" lengthAdjust="spacing" textLength="122.1855" x="729" y="331.7803">AuditLogRepository</text></g><!--class ConsentRepository--><g id="elem_ConsentRepository"><rect codeLine="170" fill="#F1F1F1" height="24" id="ConsentRepository" rx="2.5" ry="2.5" style="stroke:#181818;stroke-width:0.5;" width="125.0615" x="872.5" y="316"/><text fill="#000000" font-family="Helvetica" font-size="14" lengthAdjust="spacing" textLength="119.0615" x="875.5" y="331.7803">ConsentRepository</text></g><polygon fill="#181818" points="549.2389,659.6388,559.0873,659.7334,553.8272,657.6521,555.9086,652.3921,549.2389,659.6388" style="stroke:#181818;stroke-width:1;"/><path d="M907.9506,504.3203 C808.5805,547.3466 661.5295,611.0182 554.7449,657.2548 " fill="none" style="stroke:#181818;stroke-width:1;"/><text fill="#000000" font-family="Helvetica" font-size="13" lengthAdjust="spacing" textLength="20.9473" x="771" y="573.0103">cria</text><text fill="#000000" font-family="Helvetica" font-size="13" lengthAdjust="spacing" textLength="5.0591" x="550.2389" y="655.6491">*</text><text fill="#000000" font-family="Helvetica" font-size="13" lengthAdjust="spacing" textLength="7.23" x="899.9506" y="500.3306">1</text><polygon fill="#181818" points="997.1141,882.8268,1001.345,873.933,997.2431,877.8285,993.3477,873.7266,997.1141,882.8268" style="stroke:#181818;stroke-width:1;"/><path d="M1005.8823,543.0623 C1003.3221,642.2689 999.2641,799.5177 997.2689,876.8288 " fill="none" style="stroke:#181818;stroke-width:1;"/><text fill="#000000" font-family="Helvetica" font-size="13" lengthAdjust="spacing" textLength="34.6772" x="1006" y="717.5103">revisa</text><text fill="#000000" font-family="Helvetica" font-size="13" lengthAdjust="spacing" textLength="5.0591" x="991.1141" y="878.8371">*</text><text fill="#000000" font-family="Helvetica" font-size="13" lengthAdjust="spacing" textLength="7.23" x="997.8823" y="554.0725">1</text><polygon fill="#181818" points="355.4436,832.2236,348.9224,835.3014,349.2554,842.5049,355.7766,839.427,355.4436,832.2236" style="stroke:#181818;stroke-width:1;"/><path d="M349.2554,842.5049 C338.4077,860.5274 334.0264,867.8065 325.0224,882.7659 " fill="none" style="stroke:#181818;stroke-width:1;"/><text fill="#000000" font-family="Helvetica" font-size="13" lengthAdjust="spacing" textLength="5.0591" x="319.0224" y="878.7762">*</text><text fill="#000000" font-family="Helvetica" font-size="13" lengthAdjust="spacing" textLength="7.23" x="347.4436" y="843.2338">1</text><polygon fill="#181818" points="403.9312,832.0315,398.8886,837.1864,401.7075,843.8237,406.7501,838.6688,403.9312,832.0315" style="stroke:#181818;stroke-width:1;"/><path d="M401.7075,843.8237 C389.4161,909.0057 377.0673,974.4914 368.1809,1021.6167 " fill="none" style="stroke:#181818;stroke-width:1;"/><text fill="#000000" font-family="Helvetica" font-size="13" lengthAdjust="spacing" textLength="5.0591" x="362.1809" y="1017.6269">*</text><text fill="#000000" font-family="Helvetica" font-size="13" lengthAdjust="spacing" textLength="7.23" x="395.9312" y="843.0418">1</text><polygon fill="none" points="318.3008,971.3477,317.0872,978.4559,323.1819,982.3101,324.3955,975.2018,318.3008,971.3477" style="stroke:#181818;stroke-width:1;"/><path d="M323.1819,982.3101 C330.3722,998.4589 333.6458,1005.811 340.8248,1021.9343 " fill="none" style="stroke:#181818;stroke-width:1;"/><text fill="#000000" font-family="Helvetica" font-size="13" lengthAdjust="spacing" textLength="5.0591" x="334.8248" y="1017.9446">*</text><text fill="#000000" font-family="Helvetica" font-size="13" lengthAdjust="spacing" textLength="7.23" x="310.3008" y="982.3579">1</text><path d="M447.6669,832.2236 C452.1202,856.3168 456.4208,879.5843 459.6242,896.9157 " fill="none" style="stroke:#181818;stroke-width:1;"/><text fill="#000000" font-family="Helvetica" font-size="13" lengthAdjust="spacing" textLength="5.0591" x="453.6242" y="892.926">*</text><text fill="#000000" font-family="Helvetica" font-size="13" lengthAdjust="spacing" textLength="5.0591" x="441.6669" y="843.2338">*</text><polygon fill="#181818" points="926.0124,882.9242,919.9899,875.1313,921.6116,880.5507,916.1922,882.1725,926.0124,882.9242" style="stroke:#181818;stroke-width:1;"/><path d="M549.4288,747.5128 C646.2482,774.8506 783.3444,817.6476 898,869 C907.251,873.1434 911.4651,875.0783 920.7315,880.076 " fill="none" style="stroke:#181818;stroke-width:1;"/><text fill="#000000" font-family="Helvetica" font-size="13" lengthAdjust="spacing" textLength="5.0591" x="920.0124" y="878.9345">*</text><text fill="#000000" font-family="Helvetica" font-size="13" lengthAdjust="spacing" textLength="7.23" x="550.4288" y="743.5231">1</text><polygon fill="#181818" points="1142.2397,669.8173,1140.7376,660.0837,1139.5359,665.6114,1134.0082,664.4097,1142.2397,669.8173" style="stroke:#181818;stroke-width:1;"/><path d="M1060.8207,543.1655 C1087.9668,585.3927 1116.6921,630.0766 1138.9952,664.7702 " fill="none" style="stroke:#181818;stroke-width:1;"/><text fill="#000000" font-family="Helvetica" font-size="13" lengthAdjust="spacing" textLength="5.0591" x="1136.2397" y="665.8276">*</text><text fill="#000000" font-family="Helvetica" font-size="13" lengthAdjust="spacing" textLength="7.23" x="1052.8207" y="554.1758">1</text><polygon fill="#181818" points="1354.3901,669.7825,1353.4029,659.9833,1351.9117,665.44,1346.4549,663.9487,1354.3901,669.7825" style="stroke:#181818;stroke-width:1;"/><path d="M1108.3087,492.5522 C1167.741,514.7651 1241.9461,548.9705 1297,596 C1320.8535,616.3767 1337.6294,640.4157 1351.416,664.5715 " fill="none" style="stroke:#181818;stroke-width:1;"/><text fill="#000000" font-family="Helvetica" font-size="13" lengthAdjust="spacing" textLength="5.0591" x="1348.3901" y="665.7928">*</text><text fill="#000000" font-family="Helvetica" font-size="13" lengthAdjust="spacing" textLength="7.23" x="1109.3087" y="488.5625">1</text><polygon fill="#181818" points="914.3637,669.8173,921.696,663.2418,916.4095,665.255,914.3963,659.9685,914.3637,669.8173" style="stroke:#181818;stroke-width:1;"/><path d="M971.1559,543.1655 C952.2207,585.3927 932.3757,629.6489 916.8186,664.3425 " fill="none" style="stroke:#181818;stroke-width:1;stroke-dasharray:7.0,7.0;"/><polygon fill="#181818" points="541.9736,875.9897,539.9586,866.3492,539.0511,871.9327,533.4675,871.0252,541.9736,875.9897" style="stroke:#181818;stroke-width:1;"/><path d="M510.4454,832.2236 C521.5152,847.5901 528.8359,857.7524 538.4666,871.1213 " fill="none" style="stroke:#181818;stroke-width:1;stroke-dasharray:7.0,7.0;"/><polygon fill="#181818" points="696.5512,882.9009,691.0133,874.7565,692.3028,880.2644,686.7949,881.5539,696.5512,882.9009" style="stroke:#181818;stroke-width:1;"/><path d="M549.2285,791.4742 C598.8298,822.2562 649.0934,853.4492 691.4531,879.7371 " fill="none" style="stroke:#181818;stroke-width:1;stroke-dasharray:7.0,7.0;"/><polygon fill="#181818" points="118.057,875.404,127.6582,873.2095,122.0587,872.4063,122.8619,866.8067,118.057,875.404" style="stroke:#181818;stroke-width:1;"/><path d="M302.858,770.0031 C247.333,796.9012 182.0223,831.5373 127,869 C124.0225,871.0273 125.834,869.5782 122.859,871.8067 " fill="none" style="stroke:#181818;stroke-width:1;stroke-dasharray:7.0,7.0;"/><polygon fill="#181818" points="208.6219,889.8132,217.646,885.8679,211.9949,886.1223,211.7405,880.4711,208.6219,889.8132" style="stroke:#181818;stroke-width:1;"/><path d="M302.8747,805.7956 C277.7463,825.8206 251.9815,847.496 229,869 C222.1159,875.4415 219.1749,878.2653 212.6695,885.3841 " fill="none" style="stroke:#181818;stroke-width:1;stroke-dasharray:7.0,7.0;"/><polygon fill="#181818" points="996,1035.7781,1000,1026.7781,996,1030.7781,992,1026.7781,996,1035.7781" style="stroke:#181818;stroke-width:1;"/><path d="M996,971.3477 C996,992.3567 996,1011.0314 996,1029.7781 " fill="none" style="stroke:#181818;stroke-width:1;stroke-dasharray:7.0,7.0;"/><polygon fill="#181818" points="708.7336,147.8774,705.4348,138.5974,705.2898,144.2524,699.6348,144.1074,708.7336,147.8774" style="stroke:#181818;stroke-width:1;"/><path d="M659.5205,96.0742 C670.9304,108.0847 685.8962,123.8381 704.6011,143.5274 " fill="none" style="stroke:#181818;stroke-width:1;stroke-dasharray:7.0,7.0;"/><polygon fill="#181818" points="1074.4554,175.9131,1076.3823,166.2545,1073.3579,171.035,1068.5774,168.0106,1074.4554,175.9131" style="stroke:#181818;stroke-width:1;"/><path d="M1056.4917,96.0742 C1060.5387,114.0609 1067.3525,144.3445 1073.1384,170.0594 " fill="none" style="stroke:#181818;stroke-width:1;stroke-dasharray:7.0,7.0;"/><polygon fill="#181818" points="776.8046,147.8774,782.8068,140.0689,777.9791,143.0173,775.0307,138.1897,776.8046,147.8774" style="stroke:#181818;stroke-width:1;"/><path d="M789.3237,96.0742 C786.4212,108.0847 782.9723,122.356 778.214,142.0453 " fill="none" style="stroke:#181818;stroke-width:1;stroke-dasharray:7.0,7.0;"/><polygon fill="#181818" points="692.9792,170.4219,686.6807,162.8503,688.4961,168.2079,683.1385,170.0233,692.9792,170.4219" style="stroke:#181818;stroke-width:1;"/><path d="M542.4253,96.0742 C576.3222,112.8134 636.6729,142.6162 687.5995,167.7652 " fill="none" style="stroke:#181818;stroke-width:1;stroke-dasharray:7.0,7.0;"/><polygon fill="#181818" points="811.9873,147.7961,821.2453,144.4364,815.5895,144.3286,815.6973,138.6728,811.9873,147.7961" style="stroke:#181818;stroke-width:1;"/><path d="M897.9107,96.1511 C880.1229,102.4715 859.0331,111.4476 842,123 C831.5295,130.1014 825.6794,134.6161 816.31,143.6351 " fill="none" style="stroke:#181818;stroke-width:1;stroke-dasharray:7.0,7.0;"/><polygon fill="#181818" points="924.503,168.9757,929.5885,160.5413,925.1232,164.0143,921.6502,159.5491,924.503,168.9757" style="stroke:#181818;stroke-width:1;"/><path d="M933.6157,96.0742 C931.5632,112.4943 928.3641,138.0873 925.2472,163.022 " fill="none" style="stroke:#181818;stroke-width:1;stroke-dasharray:7.0,7.0;"/><polygon fill="#181818" points="1076.466,315.8151,1080.8372,306.9894,1076.6742,310.8194,1072.8442,306.6564,1076.466,315.8151" style="stroke:#181818;stroke-width:1;"/><path d="M1079.7896,236.0487 C1078.7203,261.7133 1077.4672,291.7874 1076.7158,309.8203 " fill="none" style="stroke:#181818;stroke-width:1;stroke-dasharray:7.0,7.0;"/><polygon fill="#181818" points="1059.8415,315.9365,1054.7154,307.5268,1055.7294,313.092,1050.1642,314.106,1059.8415,315.9365" style="stroke:#181818;stroke-width:1;"/><path d="M963.0341,243.3003 C974.5878,252.7995 987.1625,262.9193 999,272 C1019.5946,287.7985 1039.1642,301.6329 1054.907,312.5231 " fill="none" style="stroke:#181818;stroke-width:1;stroke-dasharray:7.0,7.0;"/><polygon fill="#181818" points="387.9127,315.9024,397.6262,314.2751,392.0835,313.1447,393.2139,307.6019,387.9127,315.9024" style="stroke:#181818;stroke-width:1;"/><path d="M692.9085,218.8465 C624.8159,231.7339 519.3505,255.3836 433,291 C416.8575,297.6582 404.8596,304.6971 392.9176,312.5932 " fill="none" style="stroke:#181818;stroke-width:1;stroke-dasharray:7.0,7.0;"/><polygon fill="#181818" points="525.3027,315.8547,535.1344,315.2738,529.744,313.5581,531.4598,308.1677,525.3027,315.8547" style="stroke:#181818;stroke-width:1;"/><path d="M692.9871,237.3064 C657.4545,252.9339 613.7256,272.5444 575,291 C558.1574,299.0267 544.6636,305.8431 530.6323,313.0987 " fill="none" style="stroke:#181818;stroke-width:1;stroke-dasharray:7.0,7.0;"/><polygon fill="#181818" points="787.4629,315.7242,789.3898,306.0656,786.3654,310.8461,781.5849,307.8217,787.4629,315.7242" style="stroke:#181818;stroke-width:1;"/><path d="M775.8674,264.1884 C780.2681,283.7469 783.4415,297.851 786.1459,309.8705 " fill="none" style="stroke:#181818;stroke-width:1;stroke-dasharray:7.0,7.0;"/><polygon fill="#181818" points="914.1131,315.8641,908.1414,308.0322,909.7279,313.4621,904.2981,315.0486,914.1131,315.8641" style="stroke:#181818;stroke-width:1;"/><path d="M831.0049,264.0367 C834.6844,266.7812 838.3638,269.4517 842,272 C865.81,288.6865 889.6184,302.4468 908.8508,312.9816 " fill="none" style="stroke:#181818;stroke-width:1;stroke-dasharray:7.0,7.0;"/><polygon fill="#181818" points="409.5381,595.9376,412.2458,586.4683,408.8418,590.9864,404.3238,587.5824,409.5381,595.9376" style="stroke:#181818;stroke-width:1;"/><path d="M373.5579,340.0782 C378.7976,377.3383 395.3665,495.162 408.7026,589.9961 " fill="none" style="stroke:#181818;stroke-width:1;stroke-dasharray:7.0,7.0;"/><polygon fill="#181818" points="1051.0413,376.7151,1058.7572,370.5942,1053.3588,372.2846,1051.6684,366.8862,1051.0413,376.7151" style="stroke:#181818;stroke-width:1;"/><path d="M1070.2024,340.0837 C1065.5774,348.9256 1061.4147,356.8837 1053.8223,371.3985 " fill="none" style="stroke:#181818;stroke-width:1;stroke-dasharray:7.0,7.0;"/><!--SRC=[ZLRDRkCs4BxhATZqK6U3BBheBmnq0KQIDofiAv3iz1ZGqaHcLn85alB-505wAr2Wj_O1-W1zYhn9dwGa9TdKJxBD8IPdXZF3cUyRwhEAawmWA2SVM2sHA42IaZYIoXoGHnFAoiU_EMLeINUSY0lqxwz_AZd9E56dKa1kJeG0WMOUAnx_APNb1LhTkkUE8zxIiYBA3eazITaxMcRedkG2B4sYJsCfETtL4eA4bJ7z2EXBowHaAGYeq5Usa9FohHP-OmjJk2TrBXUib6jI0Bg6_02I9iJPKvLfGdcIGxE6ef8VK0753hXmd2_G3zD_o5zlLtw47tzx_CkFdx9o9Cj0xe6ZNno4eAmBT4CgoCqMeTiW3ZPulV7DpWsN-2gCi1T6PX_vIj-kiRSAra6ywRGFdRjO4bcBc9QaSnhXsDskhqEpkV7Ndjy5m3THUAiSjDv_z5NmTdUplLe6RhCx-ZOTfFUgJWbXTeZj2j-jS7FI2uFuRXNU1YiL9upll63XHpfaFAaEtcnnqAZiG_XkWLtV3dwZciKmLrsgSns_3UtYAz_5PXakhyEulMMmQR9nW_Lc6pNwgmYxhO5ADhQTXvncKDXNAeb6DCdDXaDsse2G2bGPK4vi5nuaL10MmK7_j5wUhF23y_0Sc5QXvo_3M74bN3t-iGx2yoSHPOY1jg8ccdmwx0LDvsYx3JozBba1SwHILgJIUoW8pIt1fO1oJww9sDjMbGRblC6ctXD93soETepbG4fzxDAOASRDAcK7lA12NVlSjhc0FKuBMb9Ti9JnMLyhsKszoscYnMtwZO3fsZJNEdMaTwcAvEJ0YPsnQW5mbI8jfKauWKg1f7VpzuhBUKzaWi0RFQ4q-zMDtO54Mp43ZhaD4YqMXcbpct5DJVeudO-GQoApyfvcDTVx5HadrR5iFa4w4vncvK-SIdN6RgRfYW8eQIgfgZueEgcqc6yKWeLQi9dsUjw_nB7wjwedf9JmH1SqA_gf7zJ4P5jku-j2pUI4KxiN3wrxB4IjAlC9p7RMjzhtsBRkHyiXWp8bmnoQGiUGDG3fVDfaxNbD6pBF1wnkEbT0AJLQUn68L71K_zKpKi0nWCjAnIyPGS9uEWuZQSKyrQGvshIh65HV3Wtf54Oa52ie6U_rC6cSKfq7Kn4II6bgiVDOtpgbSicoSLmof8Robf8KXZUwPhn_gsT6LkGliHk4QzoCSEJvg1jUJywkRcgTlJfJs7sDpbwSjPIV8mKQCcdGDMsknh9UESq9RVBYyjAOz80xfTTOSlhmrdhMqxVo5pgq-Ma1QpaSv3IPRmy3anPTevoZzkNBr-tmRMBflKtHatHYF9oKeybpKjd3hAkebWy0_qp3NRp27exrDzoJ3Qv8yfPaWCvK4IHdUGxy37s- -7hnxU9x0yi6gSsqEjaS5RYM-mcnotAoO-PHcT2skK-vqy-H9Nyu9HW3Fz04q2mXWWdzlLeBTgwIzV7YrUBAIbRdr5athxoPXFgHuzPRrcY8-bWjzKioK3qStPaM3FpjQg5E76Uuc9qtSb7lr6St65_TKs26EcS7CfHo-1ce78dLi9WGla_ocd8JvvHQc-uWEKtCYOlAckJquuIcxzigUGGL4rGo_W7DKdrDK-x5uZj_OPMxzNKoxbTkGjxsVqBJ4dXAqr9mGdNaxr7px1pqVFsD_VZxsWq-GOuXwXkMMt1m-l0tUWjzpYGDnbv6V9W8r2V6_pFemyDnR69OUgjm0q1D6_K8SKpaEODnmqSc4_qTsOmRxGn2dz9nHddRj_aF]--></g></svg>