<svg xmlns="http://www.w3.org/2000/svg" xmlns:xlink="http://www.w3.org/1999/xlink" contentStyleType="text/css" height="1392px" preserveAspectRatio="none" style="width:1522px;height:1392px;background:#FFFFFF;" version="1.1" viewBox="0 0 1522 1392" width="1522px" zoomAndPan="magnify"><title>Dicion&#225;rio Libras+ &#8212; Atividades: Fluxo de aprova&#231;&#227;o de novo sinal</title><defs/><g><text fill="#000000" font-family="sans-serif" font-size="14" font-weight="bold" lengthAdjust="spacing" textLength="482.542" x="518.6169" y="33.5352">Dicion&#225;rio Libras+ &#8212; Atividades: Fluxo de aprova&#231;&#227;o de novo sinal</text><rect fill="none" height="21.1992" style="stroke:none;stroke-width:1;" width="1489.7759" x="15" y="49.7852"/><ellipse cx="136.7148" cy="85.9844" fill="#222222" rx="10" ry="10" style="stroke:#222222;stroke-width:1;"/><rect fill="#F1F1F1" height="48.2656" rx="12.5" ry="12.5" style="stroke:#181818;stroke-width:0.5;" width="166.2148" x="53.6074" y="115.9844"/><text fill="#000000" font-family="sans-serif" font-size="12" lengthAdjust="spacing" textLength="146.2148" x="63.6074" y="137.5859">Preencher dados do sinal</text><text fill="#000000" font-family="sans-serif" font-size="12" lengthAdjust="spacing" textLength="145.2598" x="63.6074" y="151.7188">(par&#226;metros gramaticais)</text><rect fill="#F1F1F1" height="34.1328" rx="12.5" ry="12.5" style="stroke:#181818;stroke-width:0.5;" width="167.2813" x="53.0742" y="184.25"/><text fill="#000000" font-family="sans-serif" font-size="12" lengthAdjust="spacing" textLength="147.2813" x="63.0742" y="205.8516">Anexar v&#237;deo (+ legenda)</text><rect fill="#F1F1F1" height="34.1328" rx="12.5" ry="12.5" style="stroke:#181818;stroke-width:0.5;" width="231.4297" x="21" y="335.3379"/><text fill="#000000" font-family="sans-serif" font-size="12" lengthAdjust="spacing" textLength="211.4297" x="31" y="356.9395">Exibir erro de consentimento (LGPD)</text><ellipse cx="136.7148" cy="408.9043" fill="none" rx="11" ry="11" style="stroke:#222222;stroke-width:1;"/><ellipse cx="136.7148" cy="408.9043" fill="#222222" rx="6" ry="6" style="stroke:#222222;stroke-width:1;"/><polygon fill="#F1F1F1" points="64.7583,286.8604,208.6714,286.8604,220.6714,298.8604,208.6714,310.8604,64.7583,310.8604,52.7583,298.8604,64.7583,286.8604" style="stroke:#181818;stroke-width:0.5;"/><text fill="#000000" font-family="sans-serif" font-size="11" lengthAdjust="spacing" textLength="19.6582" x="140.7148" y="321.4951">n&#227;o</text><text fill="#000000" font-family="sans-serif" font-size="11" lengthAdjust="spacing" textLength="143.9131" x="64.7583" y="303.0176">Consentimento registrado?</text><text fill="#000000" font-family="sans-serif" font-size="11" lengthAdjust="spacing" textLength="19.0566" x="220.6714" y="296.54">sim</text><polygon fill="#F1F1F1" points="43.5264,238.3828,229.9033,238.3828,241.9033,250.3828,229.9033,262.3828,43.5264,262.3828,31.5264,250.3828,43.5264,238.3828" style="stroke:#181818;stroke-width:0.5;"/><text fill="#000000" font-family="sans-serif" font-size="11" lengthAdjust="spacing" textLength="19.0566" x="140.7148" y="273.0176">sim</text><text fill="#000000" font-family="sans-serif" font-size="11" lengthAdjust="spacing" textLength="186.377" x="43.5264" y="254.54">V&#237;deo cont&#233;m pessoa identific&#225;vel?</text><text fill="#000000" font-family="sans-serif" font-size="11" lengthAdjust="spacing" textLength="19.6582" x="241.9033" y="248.0625">n&#227;o</text><polygon fill="#F1F1F1" points="136.7148,461.9043,148.7148,473.9043,136.7148,485.9043,124.7148,473.9043,136.7148,461.9043" style="stroke:#181818;stroke-width:0.5;"/><rect fill="#F1F1F1" height="34.1328" rx="12.5" ry="12.5" style="stroke:#181818;stroke-width:0.5;" width="75.4355" x="98.9971" y="505.9043"/><text fill="#000000" font-family="sans-serif" font-size="12" lengthAdjust="spacing" textLength="55.4355" x="108.9971" y="527.5059">Submeter</text><rect fill="#F1F1F1" height="34.1328" rx="12.5" ry="12.5" style="stroke:#181818;stroke-width:0.5;" width="171.793" x="216.0005" y="1288.252"/><text fill="#000000" font-family="sans-serif" font-size="12" lengthAdjust="spacing" textLength="151.793" x="226.0005" y="1309.8535">Revisar/corrigir e reenviar</text><ellipse cx="301.897" cy="1353.3848" fill="none" rx="11" ry="11" style="stroke:#222222;stroke-width:1;"/><ellipse cx="301.897" cy="1353.3848" fill="#222222" rx="6" ry="6" style="stroke:#222222;stroke-width:1;"/><line style="stroke:#000000;stroke-width:1.5;" x1="15" x2="15" y1="49.7852" y2="1380.3848"/><rect fill="#F1F1F1" height="34.1328" rx="12.5" ry="12.5" style="stroke:#181818;stroke-width:0.5;" width="99.5176" x="673.9961" y="560.0371"/><text fill="#000000" font-family="sans-serif" font-size="12" lengthAdjust="spacing" textLength="79.5176" x="683.9961" y="581.6387">Validar dados</text><rect fill="#F1F1F1" height="34.1328" rx="12.5" ry="12.5" style="stroke:#181818;stroke-width:0.5;" width="224.6738" x="611.418" y="614.1699"/><text fill="#000000" font-family="sans-serif" font-size="12" lengthAdjust="spacing" textLength="204.6738" x="621.418" y="635.7715">Criar Sinal com status = PENDENTE</text><rect fill="#F1F1F1" height="34.1328" rx="12.5" ry="12.5" style="stroke:#181818;stroke-width:0.5;" width="200.3633" x="623.5732" y="668.3027"/><text fill="#000000" font-family="sans-serif" font-size="12" lengthAdjust="spacing" textLength="180.3633" x="633.5732" y="689.9043">Registrar AuditLog (SUBMETER)</text><rect fill="#F1F1F1" height="34.1328" rx="12.5" ry="12.5" style="stroke:#181818;stroke-width:0.5;" width="321.5586" x="397.7935" y="928.834"/><text fill="#000000" font-family="sans-serif" font-size="12" lengthAdjust="spacing" textLength="301.5586" x="407.7935" y="950.4355">Transi&#231;&#227;o PENDENTE -&gt; APROVADO -&gt; PUBLICADO</text><rect fill="#F1F1F1" height="34.1328" rx="12.5" ry="12.5" style="stroke:#181818;stroke-width:0.5;" width="198.002" x="459.5718" y="997.9668"/><text fill="#000000" font-family="sans-serif" font-size="12" lengthAdjust="spacing" textLength="178.002" x="469.5718" y="1019.5684">Registrar Revisao (APROVADO)</text><rect fill="#F1F1F1" height="34.1328" rx="12.5" ry="12.5" style="stroke:#181818;stroke-width:0.5;" width="195.6992" x="460.7231" y="1067.0996"/><text fill="#000000" font-family="sans-serif" font-size="12" lengthAdjust="spacing" textLength="175.6992" x="470.7231" y="1088.7012">Registrar AuditLog (APROVAR)</text><rect fill="#F1F1F1" height="34.1328" rx="12.5" ry="12.5" style="stroke:#181818;stroke-width:0.5;" width="182.8438" x="467.1509" y="1123.543"/><text fill="#000000" font-family="sans-serif" font-size="12" lengthAdjust="spacing" textLength="162.8438" x="477.1509" y="1145.1445">Sinal dispon&#237;vel ao Visitante</text><rect fill="#F1F1F1" height="34.1328" rx="12.5" ry="12.5" style="stroke:#181818;stroke-width:0.5;" width="211.8184" x="783.0278" y="977.3115"/><text fill="#000000" font-family="sans-serif" font-size="12" lengthAdjust="spacing" textLength="191.8184" x="793.0278" y="998.9131">Recusar (justificativa obrigat&#243;ria)</text><ellipse cx="888.937" cy="1057.4443" fill="none" rx="11" ry="11" style="stroke:#222222;stroke-width:1;"/><ellipse cx="888.937" cy="1057.4443" fill="#222222" rx="6" ry="6" style="stroke:#222222;stroke-width:1;"/><polygon fill="#F1F1F1" points="826.9788,928.834,950.8953,928.834,962.8953,940.834,950.8953,952.834,826.9788,952.834,814.9788,940.834,826.9788,928.834" style="stroke:#181818;stroke-width:0.5;"/><text fill="#000000" font-family="sans-serif" font-size="11" lengthAdjust="spacing" textLength="19.6582" x="892.937" y="963.4688">n&#227;o</text><text fill="#000000" font-family="sans-serif" font-size="11" lengthAdjust="spacing" textLength="123.9165" x="826.9788" y="944.9912">Justificativa informada?</text><text fill="#000000" font-family="sans-serif" font-size="11" lengthAdjust="spacing" textLength="19.0566" x="962.8953" y="938.5137">sim</text><rect fill="#F1F1F1" height="34.1328" rx="12.5" ry="12.5" style="stroke:#181818;stroke-width:0.5;" width="226.5898" x="775.6421" y="1121.2324"/><text fill="#000000" font-family="sans-serif" font-size="12" lengthAdjust="spacing" textLength="206.5898" x="785.6421" y="1142.834">Transi&#231;&#227;o PENDENTE -&gt; REJEITADO</text><rect fill="#F1F1F1" height="34.1328" rx="12.5" ry="12.5" style="stroke:#181818;stroke-width:0.5;" width="193.707" x="792.0835" y="1177.6758"/><text fill="#000000" font-family="sans-serif" font-size="12" lengthAdjust="spacing" textLength="173.707" x="802.0835" y="1199.2773">Registrar Revisao (REJEITADO)</text><rect fill="#F1F1F1" height="34.1328" rx="12.5" ry="12.5" style="stroke:#181818;stroke-width:0.5;" width="299.1699" x="739.3521" y="1234.1191"/><text fill="#000000" font-family="sans-serif" font-size="12" lengthAdjust="spacing" textLength="279.1699" x="749.3521" y="1255.7207">Notificar autor (status em "Minhas submiss&#245;es")</text><line style="stroke:#000000;stroke-width:1.5;" x1="391.7935" x2="391.7935" y1="49.7852" y2="1380.3848"/><rect fill="#F1F1F1" height="34.1328" rx="12.5" ry="12.5" style="stroke:#181818;stroke-width:0.5;" width="152.1699" x="1074.1538" y="722.4355"/><text fill="#000000" font-family="sans-serif" font-size="12" lengthAdjust="spacing" textLength="132.1699" x="1084.1538" y="744.0371">Abrir fila de aprova&#231;&#227;o</text><rect fill="#F1F1F1" height="34.1328" rx="12.5" ry="12.5" style="stroke:#181818;stroke-width:0.5;" width="203.4336" x="1048.522" y="776.5684"/><text fill="#000000" font-family="sans-serif" font-size="12" lengthAdjust="spacing" textLength="183.4336" x="1058.522" y="798.1699">Selecionar submiss&#227;o pendente</text><rect fill="#F1F1F1" height="34.1328" rx="12.5" ry="12.5" style="stroke:#181818;stroke-width:0.5;" width="182.8027" x="1058.8374" y="830.7012"/><text fill="#000000" font-family="sans-serif" font-size="12" lengthAdjust="spacing" textLength="162.8027" x="1068.8374" y="852.3027">Analisar v&#237;deo e par&#226;metros</text><polygon fill="#F1F1F1" points="1127.1082,884.834,1173.3694,884.834,1185.3694,896.834,1173.3694,908.834,1127.1082,908.834,1115.1082,896.834,1127.1082,884.834" style="stroke:#181818;stroke-width:0.5;"/><text fill="#000000" font-family="sans-serif" font-size="11" lengthAdjust="spacing" textLength="46.2612" x="1127.1082" y="900.9912">Decis&#227;o?</text><text fill="#000000" font-family="sans-serif" font-size="11" lengthAdjust="spacing" textLength="42.0396" x="1073.0686" y="894.5137">Aprovar</text><text fill="#000000" font-family="sans-serif" font-size="11" lengthAdjust="spacing" textLength="40.4282" x="1185.3694" y="894.5137">Rejeitar</text><line style="stroke:#000000;stroke-width:1.5;" x1="1042.522" x2="1042.522" y1="49.7852" y2="1380.3848"/><rect fill="#F1F1F1" height="34.1328" rx="12.5" ry="12.5" style="stroke:#181818;stroke-width:0.5;" width="236.9727" x="1261.9556" y="1179.9863"/><text fill="#000000" font-family="sans-serif" font-size="12" lengthAdjust="spacing" textLength="216.9727" x="1271.9556" y="1201.5879">Pesquisar e visualizar sinal publicado</text><ellipse cx="1380.4419" cy="1247.4297" fill="none" rx="11" ry="11" style="stroke:#222222;stroke-width:1;"/><ellipse cx="1380.4419" cy="1247.4297" fill="#222222" rx="6" ry="6" style="stroke:#222222;stroke-width:1;"/><line style="stroke:#000000;stroke-width:1.5;" x1="1255.9556" x2="1255.9556" y1="49.7852" y2="1380.3848"/><line style="stroke:#000000;stroke-width:1.5;" x1="1502.9282" x2="1502.9282" y1="49.7852" y2="1380.3848"/><line style="stroke:#181818;stroke-width:1;" x1="136.7148" x2="136.7148" y1="95.9844" y2="115.9844"/><polygon fill="#181818" points="132.7148,105.9844,136.7148,115.9844,140.7148,105.9844,136.7148,109.9844" style="stroke:#181818;stroke-width:1;"/><line style="stroke:#181818;stroke-width:1;" x1="136.7148" x2="136.7148" y1="164.25" y2="184.25"/><polygon fill="#181818" points="132.7148,174.25,136.7148,184.25,140.7148,174.25,136.7148,178.25" style="stroke:#181818;stroke-width:1;"/><line style="stroke:#181818;stroke-width:1;" x1="136.7148" x2="136.7148" y1="369.4707" y2="397.9043"/><polygon fill="#181818" points="132.7148,387.9043,136.7148,397.9043,140.7148,387.9043,136.7148,391.9043" style="stroke:#181818;stroke-width:1;"/><line style="stroke:#181818;stroke-width:1;" x1="136.7148" x2="136.7148" y1="310.8604" y2="335.3379"/><polygon fill="#181818" points="132.7148,325.3379,136.7148,335.3379,140.7148,325.3379,136.7148,329.3379" style="stroke:#181818;stroke-width:1;"/><line style="stroke:#181818;stroke-width:1;" x1="220.6714" x2="262.4297" y1="298.8604" y2="298.8604"/><polygon fill="#181818" points="258.4297,367.9043,262.4297,377.9043,266.4297,367.9043,262.4297,371.9043" style="stroke:#181818;stroke-width:1;"/><line style="stroke:#181818;stroke-width:1;" x1="262.4297" x2="262.4297" y1="298.8604" y2="441.9043"/><line style="stroke:#181818;stroke-width:1;" x1="262.4297" x2="136.7148" y1="441.9043" y2="441.9043"/><line style="stroke:#181818;stroke-width:1;" x1="136.7148" x2="136.7148" y1="441.9043" y2="461.9043"/><polygon fill="#181818" points="132.7148,451.9043,136.7148,461.9043,140.7148,451.9043,136.7148,455.9043" style="stroke:#181818;stroke-width:1;"/><line style="stroke:#181818;stroke-width:1;" x1="136.7148" x2="136.7148" y1="262.3828" y2="286.8604"/><polygon fill="#181818" points="132.7148,276.8604,136.7148,286.8604,140.7148,276.8604,136.7148,280.8604" style="stroke:#181818;stroke-width:1;"/><line style="stroke:#181818;stroke-width:1;" x1="241.9033" x2="284.4297" y1="250.3828" y2="250.3828"/><polygon fill="#181818" points="280.4297,361.9043,284.4297,371.9043,288.4297,361.9043,284.4297,365.9043" style="stroke:#181818;stroke-width:1;"/><line style="stroke:#181818;stroke-width:1;" x1="284.4297" x2="284.4297" y1="250.3828" y2="473.9043"/><line style="stroke:#181818;stroke-width:1;" x1="284.4297" x2="148.7148" y1="473.9043" y2="473.9043"/><polygon fill="#181818" points="158.7148,469.9043,148.7148,473.9043,158.7148,477.9043,154.7148,473.9043" style="stroke:#181818;stroke-width:1;"/><line style="stroke:#181818;stroke-width:1;" x1="136.7148" x2="136.7148" y1="218.3828" y2="238.3828"/><polygon fill="#181818" points="132.7148,228.3828,136.7148,238.3828,140.7148,228.3828,136.7148,232.3828" style="stroke:#181818;stroke-width:1;"/><line style="stroke:#181818;stroke-width:1;" x1="136.7148" x2="136.7148" y1="485.9043" y2="505.9043"/><polygon fill="#181818" points="132.7148,495.9043,136.7148,505.9043,140.7148,495.9043,136.7148,499.9043" style="stroke:#181818;stroke-width:1;"/><line style="stroke:#181818;stroke-width:1;" x1="301.897" x2="301.897" y1="1322.3848" y2="1342.3848"/><polygon fill="#181818" points="297.897,1332.3848,301.897,1342.3848,305.897,1332.3848,301.897,1336.3848" style="stroke:#181818;stroke-width:1;"/><line style="stroke:#181818;stroke-width:1;" x1="723.7549" x2="723.7549" y1="594.1699" y2="614.1699"/><polygon fill="#181818" points="719.7549,604.1699,723.7549,614.1699,727.7549,604.1699,723.7549,608.1699" style="stroke:#181818;stroke-width:1;"/><line style="stroke:#181818;stroke-width:1;" x1="723.7549" x2="723.7549" y1="648.3027" y2="668.3027"/><polygon fill="#181818" points="719.7549,658.3027,723.7549,668.3027,727.7549,658.3027,723.7549,662.3027" style="stroke:#181818;stroke-width:1;"/><line style="stroke:#181818;stroke-width:1;" x1="558.5728" x2="558.5728" y1="962.9668" y2="997.9668"/><polygon fill="#181818" points="554.5728,987.9668,558.5728,997.9668,562.5728,987.9668,558.5728,991.9668" style="stroke:#181818;stroke-width:1;"/><line style="stroke:#181818;stroke-width:1;" x1="558.5728" x2="558.5728" y1="1032.0996" y2="1067.0996"/><polygon fill="#181818" points="554.5728,1057.0996,558.5728,1067.0996,562.5728,1057.0996,558.5728,1061.0996" style="stroke:#181818;stroke-width:1;"/><line style="stroke:#181818;stroke-width:1;" x1="558.5728" x2="558.5728" y1="1101.2324" y2="1123.543"/><polygon fill="#181818" points="554.5728,1113.543,558.5728,1123.543,562.5728,1113.543,558.5728,1117.543" style="stroke:#181818;stroke-width:1;"/><line style="stroke:#181818;stroke-width:1;" x1="888.937" x2="888.937" y1="1011.4443" y2="1046.4443"/><polygon fill="#181818" points="884.937,1036.4443,888.937,1046.4443,892.937,1036.4443,888.937,1040.4443" style="stroke:#181818;stroke-width:1;"/><line style="stroke:#181818;stroke-width:1;" x1="888.937" x2="888.937" y1="952.834" y2="977.3115"/><polygon fill="#181818" points="884.937,967.3115,888.937,977.3115,892.937,967.3115,888.937,971.3115" style="stroke:#181818;stroke-width:1;"/><line style="stroke:#181818;stroke-width:1;" x1="962.8953" x2="1004.8462" y1="940.834" y2="940.834"/><polygon fill="#181818" points="1000.8462,1009.8779,1004.8462,1019.8779,1008.8462,1009.8779,1004.8462,1013.8779" style="stroke:#181818;stroke-width:1;"/><line style="stroke:#181818;stroke-width:1;" x1="1004.8462" x2="1004.8462" y1="940.834" y2="1098.9219"/><line style="stroke:#181818;stroke-width:1;" x1="1004.8462" x2="888.937" y1="1098.9219" y2="1098.9219"/><line style="stroke:#181818;stroke-width:1;" x1="888.937" x2="888.937" y1="1098.9219" y2="1121.2324"/><polygon fill="#181818" points="884.937,1111.2324,888.937,1121.2324,892.937,1111.2324,888.937,1115.2324" style="stroke:#181818;stroke-width:1;"/><line style="stroke:#181818;stroke-width:1;" x1="888.937" x2="888.937" y1="1155.3652" y2="1177.6758"/><polygon fill="#181818" points="884.937,1167.6758,888.937,1177.6758,892.937,1167.6758,888.937,1171.6758" style="stroke:#181818;stroke-width:1;"/><line style="stroke:#181818;stroke-width:1;" x1="888.937" x2="888.937" y1="1211.8086" y2="1234.1191"/><polygon fill="#181818" points="884.937,1224.1191,888.937,1234.1191,892.937,1224.1191,888.937,1228.1191" style="stroke:#181818;stroke-width:1;"/><line style="stroke:#181818;stroke-width:1;" x1="1150.2388" x2="1150.2388" y1="756.5684" y2="776.5684"/><polygon fill="#181818" points="1146.2388,766.5684,1150.2388,776.5684,1154.2388,766.5684,1150.2388,770.5684" style="stroke:#181818;stroke-width:1;"/><line style="stroke:#181818;stroke-width:1;" x1="1150.2388" x2="1150.2388" y1="810.7012" y2="830.7012"/><polygon fill="#181818" points="1146.2388,820.7012,1150.2388,830.7012,1154.2388,820.7012,1150.2388,824.7012" style="stroke:#181818;stroke-width:1;"/><line style="stroke:#181818;stroke-width:1;" x1="1150.2388" x2="1150.2388" y1="864.834" y2="884.834"/><polygon fill="#181818" points="1146.2388,874.834,1150.2388,884.834,1154.2388,874.834,1150.2388,878.834" style="stroke:#181818;stroke-width:1;"/><line style="stroke:#181818;stroke-width:1;" x1="1380.4419" x2="1380.4419" y1="1214.1191" y2="1236.4297"/><polygon fill="#181818" points="1376.4419,1226.4297,1380.4419,1236.4297,1384.4419,1226.4297,1380.4419,1230.4297" style="stroke:#181818;stroke-width:1;"/><line style="stroke:#181818;stroke-width:1;" x1="136.7148" x2="136.7148" y1="540.0371" y2="545.0371"/><line style="stroke:#181818;stroke-width:1;" x1="136.7148" x2="723.7549" y1="545.0371" y2="545.0371"/><line style="stroke:#181818;stroke-width:1;" x1="723.7549" x2="723.7549" y1="545.0371" y2="560.0371"/><polygon fill="#181818" points="719.7549,550.0371,723.7549,560.0371,727.7549,550.0371,723.7549,554.0371" style="stroke:#181818;stroke-width:1;"/><line style="stroke:#181818;stroke-width:1;" x1="723.7549" x2="723.7549" y1="702.4355" y2="707.4355"/><line style="stroke:#181818;stroke-width:1;" x1="723.7549" x2="1150.2388" y1="707.4355" y2="707.4355"/><line style="stroke:#181818;stroke-width:1;" x1="1150.2388" x2="1150.2388" y1="707.4355" y2="722.4355"/><polygon fill="#181818" points="1146.2388,712.4355,1150.2388,722.4355,1154.2388,712.4355,1150.2388,716.4355" style="stroke:#181818;stroke-width:1;"/><line style="stroke:#181818;stroke-width:1;" x1="558.5728" x2="558.5728" y1="1157.6758" y2="1162.6758"/><line style="stroke:#181818;stroke-width:1;" x1="558.5728" x2="1380.4419" y1="1162.6758" y2="1162.6758"/><line style="stroke:#181818;stroke-width:1;" x1="1380.4419" x2="1380.4419" y1="1162.6758" y2="1179.9863"/><polygon fill="#181818" points="1376.4419,1169.9863,1380.4419,1179.9863,1384.4419,1169.9863,1380.4419,1173.9863" style="stroke:#181818;stroke-width:1;"/><line style="stroke:#181818;stroke-width:1;" x1="888.937" x2="888.937" y1="1268.252" y2="1273.252"/><line style="stroke:#181818;stroke-width:1;" x1="888.937" x2="301.897" y1="1273.252" y2="1273.252"/><line style="stroke:#181818;stroke-width:1;" x1="301.897" x2="301.897" y1="1273.252" y2="1288.252"/><polygon fill="#181818" points="297.897,1278.252,301.897,1288.252,305.897,1278.252,301.897,1282.252" style="stroke:#181818;stroke-width:1;"/><line style="stroke:#181818;stroke-width:1;" x1="1115.1082" x2="558.5728" y1="896.834" y2="896.834"/><line style="stroke:#181818;stroke-width:1;" x1="558.5728" x2="558.5728" y1="896.834" y2="928.834"/><polygon fill="#181818" points="554.5728,918.834,558.5728,928.834,562.5728,918.834,558.5728,922.834" style="stroke:#181818;stroke-width:1;"/><line style="stroke:#181818;stroke-width:1;" x1="1185.3694" x2="1197.3694" y1="896.834" y2="896.834"/><line style="stroke:#181818;stroke-width:1;" x1="1197.3694" x2="1197.3694" y1="896.834" y2="914.834"/><line style="stroke:#181818;stroke-width:1;" x1="1197.3694" x2="888.937" y1="914.834" y2="914.834"/><line style="stroke:#181818;stroke-width:1;" x1="888.937" x2="888.937" y1="914.834" y2="928.834"/><polygon fill="#181818" points="884.937,918.834,888.937,928.834,892.937,918.834,888.937,922.834" style="stroke:#181818;stroke-width:1;"/><text fill="#000000" font-family="sans-serif" font-size="18" lengthAdjust="spacing" textLength="108.0967" x="149.3484" y="67.1875">Colaborador</text><text fill="#000000" font-family="sans-serif" font-size="18" lengthAdjust="spacing" textLength="67.5791" x="683.3682" y="67.1875">Sistema</text><text fill="#000000" font-family="sans-serif" font-size="18" lengthAdjust="spacing" textLength="63.5273" x="1117.4751" y="67.1875">Revisor</text><text fill="#000000" font-family="sans-serif" font-size="18" lengthAdjust="spacing" textLength="75.9551" x="1341.4644" y="67.1875">Visitante</text><!--SRC=[XLJ1RjD04BtxAqOzEQeGTrU0tCIWLcaREMbEN3Rs99bYxvgTjQbG3dm4Fr1wG1nwGdo1_uGlOTPEaxQWSecywvatxxrviIDN88me8wFR6qi6nhImYW_XzvUl43jgA5SvSWHlY_hQG8wWAciQrNvlRxkZDeq19gsAW3-GhfHL9V1QvUOJwHKiLS4O19kXATJ2MBcscu2TiYw89XPHPskq83CCGxu5Ugz3WMc_bUYiNAy4KJdA5F7WA8XYZTVAGjFUvMWWF8G2LwXp9Uze2U6yly-CTksF4YfaDWeeH-reILbxqs3nPW1kZHf2fd8G0FY-eT7iQqhvCM1nHUmytLsj5i6-621Ahcb15j3QpeBiKMiuVZSP2HbVoSvKye3YmMwOSALbq5_rcFrDDAqNeXZjKR2Pod0irIQ8vggG3MmT4lL3ItAQUfjahZZjbAiPNi4aEHybvxD4Qj8jUGjndPCRcnM4qylZisIMf48isAJO4Fj5HF72Yf0b5Uh9QWLcYWNwN0WE2pLYzYklXAten6uJGextkq1uiBP-6oD1y6qx5-DkXFL6x5MAfJEhD5EVgdifyE8rn9FqOXwFBlppvF9uV3AKWpVtWSfEZXBdxui7JmhsDlGLQL_GkvWJLnB-Eya52CYSc9pg10h5tQaZEK7-M7UA4MHaBV8_UtSwdAfU51BItFZ6Rl7zZbEyGi7uIxAtvxJcBfKIxqP2gfV6bYfN_yfSYbdj9uTNZtgCB72bNFjJSl7Vq3tZSvgS9YUpPxpT5VJUdPkUX0LLEoEqja744WxEIAyLxqBp2_cWQthy4UZ6U73xCZDMLFX_5FXFGYCHtvlecVy1]--></g></svg>